<?xml version="1.0" encoding="UTF-8"?>
<svg version="1.1" xmlns="http://www.w3.org/2000/svg" width="2000" height="571">
<path d="M0 0 C0.99 0 1.98 0 3 0 C11.15140526 18.60265564 19.08574031 37.2898037 26.90820312 56.03295898 C32.52758802 69.49574782 38.1909566 82.93939312 43.875 96.375 C50.99846123 113.21669553 58.05285518 130.08475174 65 147 C67.30563566 143.54154651 68.60921143 139.96823119 70.02734375 136.09375 C70.32770035 135.28301025 70.62805695 134.47227051 70.93751526 133.63696289 C71.94103719 130.92593186 72.93916952 128.21294661 73.9375 125.5 C74.64930337 123.57470846 75.36155232 121.64958161 76.07421875 119.72460938 C77.59496411 115.61639291 79.11406608 111.50757375 80.63232422 107.3984375 C84.566744 96.75764346 88.53562507 86.12966037 92.5 75.5 C99.02197668 58.01182695 99.02197668 58.01182695 105.51208496 40.5118103 C106.99037669 36.51448456 108.47089433 32.51798463 109.95141602 28.52148438 C110.64325549 26.65166536 111.33387455 24.78139427 112.02319336 22.91064453 C112.97078485 20.33904426 113.92246784 17.76899226 114.875 15.19921875 C115.1491272 14.45165817 115.42325439 13.7040976 115.70568848 12.93388367 C115.96523315 12.23600235 116.22477783 11.53812103 116.4921875 10.8190918 C116.71245605 10.22235153 116.93272461 9.62561127 117.15966797 9.01078796 C118.3015074 6.27853821 119.67568992 3.64862017 121 1 C133.54 1 146.08 1 159 1 C157.87519356 7.74883862 157.87519356 7.74883862 156.49145508 11.18286133 C156.02618408 12.3510994 156.02618408 12.3510994 155.55151367 13.54293823 C155.21095947 14.38083893 154.87040527 15.21873962 154.51953125 16.08203125 C153.9790918 17.43411179 153.9790918 17.43411179 153.42773438 18.81350708 C152.64189852 20.77865827 151.85351398 22.74279174 151.06289673 24.70602417 C148.89258212 30.09793677 146.74351442 35.49830551 144.59375 40.8984375 C144.13934036 42.03899094 143.68493073 43.17954437 143.2167511 44.35466003 C137.98472554 57.51136029 132.8962949 70.72298019 127.8125 83.9375 C125.94828245 88.7800888 124.08361851 93.6225056 122.21875 98.46484375 C121.76959229 99.6313295 121.32043457 100.79781525 120.85766602 101.99964905 C116.87207557 112.3446572 112.85045679 122.67533756 108.8125 133 C102.93452826 148.03247791 97.08403118 163.07541173 91.25 178.125 C90.44132645 180.21028707 89.63265134 182.29557354 88.82397461 184.38085938 C85.26109462 193.57054879 81.70356573 202.76221706 78.1640625 211.9609375 C77.32672191 214.13445925 76.48923843 216.30792589 75.6517334 218.48138428 C74.89503857 220.44792272 74.1412835 222.41557022 73.38769531 224.38330078 C72.94780273 225.52524902 72.50791016 226.66719727 72.0546875 227.84375 C71.67812012 228.82537109 71.30155273 229.80699219 70.91357422 230.81835938 C70 233 70 233 69 234 C67.00041636 234.04080783 64.99954746 234.04254356 63 234 C62.49364014 232.78159424 61.98728027 231.56318848 61.46557617 230.30786133 C51.77252811 206.99002787 42.04787817 183.68639089 32.20831299 160.42996216 C25.35638454 144.23490221 18.55469823 128.01926148 11.78466797 111.78979492 C11.07649918 110.09423753 10.3683287 108.39868086 9.66015625 106.703125 C9.34745285 105.95200943 9.03474945 105.20089386 8.71257019 104.42701721 C6.81676266 99.89002531 4.83248106 95.40889599 2.74632263 90.95574951 C2 89 2 89 2 86 C1.34 86 0.68 86 0 86 C-0.13027588 86.51739746 -0.26055176 87.03479492 -0.39477539 87.56787109 C-2.63615525 95.72502401 -5.99690001 103.35465958 -9.34664917 111.10122681 C-11.26414419 115.53750937 -13.1622893 119.9820744 -15.0625 124.42578125 C-15.46403793 125.36373032 -15.86557587 126.30167938 -16.27928162 127.26805115 C-20.9041201 138.08613865 -25.4223653 148.94828 -29.9375 159.8125 C-31.1928011 162.83106936 -32.44828167 165.84956404 -33.70376587 168.86805725 C-34.54107014 170.88115462 -35.37828955 172.89428728 -36.21542358 174.90745544 C-40.81505927 185.96585565 -45.43717622 197.01482476 -50.0625 208.0625 C-50.44630829 208.97963776 -50.83011658 209.89677551 -51.22555542 210.84170532 C-52.30756875 213.42717052 -53.3900199 216.01245188 -54.47265625 218.59765625 C-54.7873587 219.34960266 -55.10206116 220.10154907 -55.42630005 220.87628174 C-57.26318395 225.2600625 -59.12196461 229.63368417 -61 234 C-62.98 234 -64.96 234 -67 234 C-77.32452509 207.73297705 -87.61830119 181.45466959 -97.80679321 155.134552 C-103.50685029 140.41078728 -109.2385709 125.69985501 -115 111 C-122.08521595 92.9211611 -129.124699 74.82494643 -136.1340332 56.71655273 C-139.84433959 47.13211245 -143.56179772 37.55071181 -147.30859375 27.98046875 C-147.97367841 26.27947746 -148.6387188 24.57846887 -149.30371094 22.87744141 C-150.52866993 19.74419537 -151.75779123 16.61262667 -152.98925781 13.48193359 C-153.52817019 12.10390973 -154.06691799 10.72582148 -154.60546875 9.34765625 C-155.30385864 7.56887085 -155.30385864 7.56887085 -156.01635742 5.75415039 C-157 3 -157 3 -157 1 C-144.13 1 -131.26 1 -118 1 C-116.741875 4.39925781 -115.48375 7.79851562 -114.1875 11.30078125 C-105.41921805 34.98772574 -96.64972078 58.6741878 -87.8293457 82.34179688 C-87.18959297 84.05858521 -86.54986314 85.77538208 -85.91015625 87.4921875 C-85.59528763 88.33718811 -85.28041901 89.18218872 -84.95600891 90.05279541 C-82.85812328 95.68627942 -80.76914742 101.32300946 -78.68484497 106.96153259 C-77.20984452 110.95110807 -75.7323813 114.93976956 -74.25476074 118.92837524 C-73.55097995 120.83024562 -72.84839711 122.73255979 -72.14709473 124.63534546 C-71.17795598 127.26455476 -70.20465213 129.89218772 -69.23046875 132.51953125 C-68.94682968 133.29245514 -68.66319061 134.06537903 -68.37095642 134.86172485 C-66.81252973 139.05090596 -65.08376958 143.03507677 -63 147 C-52.00475238 121.22391607 -41.01405415 95.44616791 -30.125 69.625 C-17.60433311 39.94537786 -17.60433311 39.94537786 -12.68231201 28.33148193 C-11.94655419 26.59428822 -11.21170355 24.85670995 -10.47784424 23.11871338 C-9.4681463 20.7278365 -8.45517886 18.3383702 -7.44140625 15.94921875 C-7.15059677 15.25860855 -6.85978729 14.56799835 -6.56016541 13.85646057 C-4.55258365 9.13871035 -2.32775 4.5685795 0 0 Z " fill="#1E08FF" transform="translate(1469,326)"/>
<path d="M0 0 C1.88046265 0.27737427 1.88046265 0.27737427 4 1 C5.08120728 2.53927612 5.08120728 2.53927612 5.91259766 4.56201172 C6.23531647 5.32581146 6.55803528 6.08961121 6.89053345 6.8765564 C7.22829803 7.71908966 7.56606262 8.56162292 7.9140625 9.4296875 C8.28091156 10.30952301 8.64776062 11.18935852 9.02572632 12.09585571 C10.23969685 15.01657404 11.43209968 17.94562013 12.625 20.875 C13.47375364 22.92705616 14.32403559 24.97848081 15.17578125 27.02929688 C16.93483551 31.27009075 18.68594402 35.51403139 20.43066406 39.76074219 C23.88097161 48.15206336 27.39204098 56.51771191 30.90292358 64.88381958 C32.00321451 67.50766559 33.10124065 70.13244754 34.19848633 72.75756836 C41.0476101 89.14238548 47.95622177 105.50194409 54.8732605 121.85818481 C56.27601603 125.17681485 57.6763583 128.49646087 59.07672119 131.81610107 C59.93074817 133.83619357 60.78955604 135.85417489 61.64990234 137.87158203 C62.33947021 139.49942627 62.33947021 139.49942627 63.04296875 141.16015625 C63.42864014 142.06515869 63.81431152 142.97016113 64.21166992 143.90258789 C65 146 65 146 65 148 C65.66 148 66.32 148 67 148 C67.08886475 147.22100342 67.17772949 146.44200684 67.26928711 145.6394043 C68.24042019 140.80255807 69.9445551 136.37449475 71.69140625 131.76953125 C72.06805923 130.76336761 72.44471222 129.75720398 72.83277893 128.72055054 C74.07105715 125.41598126 75.31683517 122.11429113 76.5625 118.8125 C77.43075621 116.4986715 78.29842516 114.18462255 79.16552734 111.87036133 C80.93078224 107.16041946 82.69851432 102.45141966 84.46826172 97.74316406 C87.71834589 89.09250881 90.94397136 80.43281467 94.16424561 71.77102661 C95.12380599 69.19071076 96.08450114 66.61081975 97.04541016 64.03100586 C100.62859918 54.40649489 104.19132025 44.7746411 107.73828125 35.13671875 C108.53042053 32.98607821 109.32257533 30.83544339 110.11474609 28.68481445 C111.64037439 24.54257798 113.16226033 20.39899145 114.68212891 16.25463867 C115.36998982 14.38585806 116.05797155 12.51712192 116.74609375 10.6484375 C117.06193924 9.78405563 117.37778473 8.91967377 117.70320129 8.02909851 C119.88639299 2.11360701 119.88639299 2.11360701 121 1 C123.8116338 0.91138008 126.59858255 0.88477645 129.41015625 0.90234375 C130.25219101 0.9037587 131.09422577 0.90517365 131.96177673 0.90663147 C134.66205335 0.91224737 137.36224828 0.92480252 140.0625 0.9375 C141.88867068 0.94251295 143.71484266 0.94707621 145.54101562 0.95117188 C150.02737542 0.96222196 154.51367384 0.97949721 159 1 C158.3588951 6.57988203 156.46291565 11.40147549 154.4140625 16.58203125 C154.04556686 17.52753342 153.67707123 18.47303558 153.29740906 19.44718933 C152.07858486 22.57106436 150.85174771 25.69172902 149.625 28.8125 C148.76526318 31.01213304 147.90614217 33.21200687 147.04760742 35.41210938 C145.2601662 39.99132157 143.47006166 44.56947963 141.67822266 49.14697266 C137.92783215 58.73476415 134.21391351 68.33664946 130.49798584 77.93783569 C124.03614648 94.6290632 117.5458711 111.309074 111.03094482 127.97964478 C105.88147173 141.15698036 100.76372598 154.34639739 95.65618896 167.54003906 C89.59292845 183.1993879 83.51727639 198.8537491 77.36697388 214.47915649 C76.70992248 216.14888167 76.05372207 217.81894198 75.39840698 219.48934937 C74.50527379 221.76480398 73.60870349 224.03886998 72.7109375 226.3125 C72.44836655 226.98283768 72.18579559 227.65317535 71.91526794 228.34382629 C70.11476597 232.88523403 70.11476597 232.88523403 69 234 C67.33382885 234.04063832 65.66611905 234.042721 64 234 C59.9384141 226.30296558 56.55295408 218.36268042 53.24353027 210.32376099 C52.28066193 207.98517257 51.31327665 205.6484965 50.34472656 203.31225586 C49.30566197 200.80590075 48.2668231 198.29945527 47.22921753 195.79249573 C43.26090285 186.20547132 39.2573646 176.63325358 35.25 167.0625 C34.8805426 166.17973389 34.51108521 165.29696777 34.13043213 164.38745117 C27.2152935 147.86668309 20.25570696 131.3647755 13.28027344 114.86938477 C12.7096669 113.51972878 12.7096669 113.51972878 12.12753296 112.14280701 C11.39624837 110.41331885 10.66467124 108.68395436 9.93276978 106.95472717 C7.54881845 101.31717007 5.19878524 95.66693509 2.88598633 89.99975586 C2.16229181 88.04226902 2.16229181 88.04226902 1 87 C-8.07033881 108.2330005 -17.06898673 129.49433687 -25.9375 150.8125 C-26.35240692 151.80975098 -26.76731384 152.80700195 -27.1947937 153.83447266 C-28.87462551 157.87235073 -30.55425325 161.91031361 -32.2335968 165.94839478 C-36.36433967 175.87962605 -40.50501993 185.80668503 -44.65457153 195.73007202 C-45.41149859 197.54074815 -46.16792835 199.35163228 -46.92379761 201.16275024 C-51.51185587 212.15546299 -56.18626337 223.10411234 -61 234 C-62.98 234 -64.96 234 -67 234 C-67.37060547 233.03328369 -67.74121094 232.06656738 -68.12304688 231.07055664 C-77.66201622 206.19618123 -87.29988231 181.36182639 -97.00256348 156.55090332 C-99.94145329 149.03481221 -102.87746801 141.51759831 -105.8125 134 C-106.13824005 133.16578522 -106.4639801 132.33157043 -106.79959106 131.47207642 C-112.34769568 117.26109694 -117.86455159 103.03811634 -123.375 88.8125 C-129.827455 72.15618567 -136.30431229 55.50962069 -142.8125 38.875 C-143.18518005 37.92194977 -143.55786011 36.96889954 -143.9418335 35.98696899 C-145.00869161 33.25926411 -146.07639031 30.53189028 -147.14453125 27.8046875 C-147.47580017 26.9582518 -147.80706909 26.1118161 -148.14837646 25.23973083 C-149.69354132 21.29932834 -151.25123999 17.36490127 -152.84130859 13.44238281 C-153.12471603 12.74202911 -153.40812347 12.04167542 -153.70011902 11.32009888 C-154.45518981 9.45960014 -155.21507222 7.60105616 -155.9753418 5.74267578 C-157 3 -157 3 -157 1 C-144.13 1 -131.26 1 -118 1 C-112.2256408 16.16846596 -106.47863697 31.34465651 -100.8359375 46.5625 C-100.57585026 47.26387777 -100.31576302 47.96525555 -100.04779434 48.68788719 C-98.43264298 53.04436518 -96.81879661 57.40132593 -95.20522308 61.75838852 C-92.6495298 68.65878857 -90.0917389 75.55840921 -87.53125 82.45703125 C-87.25119991 83.211569 -86.97114983 83.96610676 -86.68261337 84.74350929 C-83.00088052 94.65901424 -79.28872484 104.5621209 -75.53125 114.44921875 C-75.1249234 115.51907013 -74.7185968 116.58892151 -74.29995728 117.69119263 C-72.44895531 122.56075165 -70.59134658 127.42765509 -68.72412109 132.29101562 C-68.08421013 133.96871195 -67.44439233 135.64644382 -66.8046875 137.32421875 C-66.37077698 138.44397346 -66.37077698 138.44397346 -65.92810059 139.58634949 C-64.80570776 142.54005063 -64 144.81100573 -64 148 C-63.34 148 -62.68 148 -62 148 C-61.91347168 147.36449219 -61.82694336 146.72898437 -61.73779297 146.07421875 C-60.70462449 141.76923611 -58.95084889 137.86820758 -57.1953125 133.8125 C-56.60927498 132.44237511 -56.60927498 132.44237511 -56.01139832 131.04457092 C-55.16444294 129.06585647 -54.31531382 127.08807135 -53.46426392 125.1111145 C-51.64138947 120.87657114 -49.82883884 116.63763447 -48.01564026 112.39894104 C-47.07480371 110.19984757 -46.13342117 108.00098762 -45.19151306 105.80235291 C-40.92076915 95.83036716 -36.6958759 85.83938591 -32.48388672 75.84246826 C-30.53657966 71.22106378 -28.58672034 66.60073679 -26.63671875 61.98046875 C-26.25526703 61.07665466 -25.87381531 60.17284058 -25.48080444 59.24163818 C-21.57399746 49.98713692 -17.65872502 40.73623852 -13.73422241 31.48922729 C-13.00701945 29.77534755 -12.28029736 28.06126367 -11.55410767 26.34695435 C-7.8115245 17.51325125 -4.04169762 8.70243703 0 0 Z " fill="#1E08FF" transform="translate(485,326)"/>
<path d="M0 0 C12.21 0 24.42 0 37 0 C37 31.35 37 62.7 37 95 C63.73 95 90.46 95 118 95 C118 63.65 118 32.3 118 0 C129.88 0 141.76 0 154 0 C154 76.89 154 153.78 154 233 C142.12 233 130.24 233 118 233 C118 197.36 118 161.72 118 125 C91.27 125 64.54 125 37 125 C37 160.64 37 196.28 37 233 C24.79 233 12.58 233 0 233 C0 156.11 0 79.22 0 0 Z " fill="#1E09FF" transform="translate(1149,327)"/>
<path d="M0 0 C1.98 0 3.96 0 6 0 C19.23840642 27.38187866 19.23840642 27.38187866 25.5 40.5 C29.62268364 49.13621911 33.7738371 57.75847995 37.9375 66.375 C44.80390823 80.58525261 51.63576029 94.81193379 58.45898438 109.04296875 C64.28992876 121.20309575 70.13373681 133.3568753 76 145.5 C81.8605658 157.63133115 87.69841573 169.77343387 93.5234375 181.921875 C95.54708464 186.14048332 97.57367004 190.35767794 99.60009766 194.57495117 C101.5828916 198.70339102 103.56232878 202.83343723 105.54199219 206.96337891 C107.01611022 210.03355306 108.49603443 213.10088139 109.9765625 216.16796875 C110.90117321 218.09108259 111.82565831 220.01425684 112.75 221.9375 C113.18070801 222.82598633 113.61141602 223.71447266 114.05517578 224.62988281 C114.44431152 225.44166992 114.83344727 226.25345703 115.234375 227.08984375 C115.57694336 227.80003662 115.91951172 228.51022949 116.27246094 229.24194336 C117 231 117 231 117 233 C103.14 233 89.28 233 75 233 C72.97875 228.50375 70.9575 224.0075 68.875 219.375 C68.25093262 217.98845215 67.62686523 216.6019043 66.98388672 215.17333984 C64.14613429 208.85147291 61.32895976 202.52090033 58.5703125 196.1640625 C58.07547363 195.02662598 57.58063477 193.88918945 57.07080078 192.71728516 C56 190 56 190 56 188 C21.02 188.33 -13.96 188.66 -50 189 C-55.28 200.88 -60.56 212.76 -66 225 C-67.32 227.64 -68.64 230.28 -70 233 C-83.2 233 -96.4 233 -110 233 C-107.94576206 226.83728618 -105.87700973 221.31289506 -103.0078125 215.57421875 C-102.6259227 214.79795639 -102.2440329 214.02169403 -101.85057068 213.22190857 C-101.03571108 211.56631803 -100.21844955 209.91190781 -99.3989563 208.25860596 C-97.22320827 203.86749872 -95.0666535 199.46699195 -92.91015625 195.06640625 C-92.48131638 194.1919989 -92.0524765 193.31759155 -91.61064148 192.41668701 C-88.15978655 185.36437776 -84.8307612 178.26396935 -81.5625 171.125 C-75.80929635 158.58219068 -69.75405061 146.19619771 -63.67950439 133.8067627 C-57.95986305 122.13577143 -52.3603604 110.42745021 -46.94140625 98.61328125 C-42.28091771 88.49978455 -37.39759309 78.50029087 -32.5 68.5 C-25.80236783 54.82259131 -19.25840463 41.09187344 -12.890625 27.2578125 C-8.68719238 18.12768455 -4.34762452 9.06214978 0 0 Z M3 69 C-1.81668578 78.35200744 -6.135831 87.87693051 -10.375 97.5 C-11.41900406 99.86263145 -12.4638024 102.22491073 -13.50860596 104.58718872 C-14.22995855 106.21843621 -14.95094339 107.84984638 -15.67156982 109.48141479 C-18.29798047 115.42492378 -20.94557918 121.35871779 -23.6015625 127.2890625 C-24.70930728 129.76625861 -25.81676297 132.24358375 -26.9241333 134.72094727 C-27.64001574 136.3206056 -28.35709328 137.91972964 -29.07537842 139.51831055 C-30.07444385 141.74249329 -31.06896381 143.96865559 -32.0625 146.1953125 C-32.36169342 146.85818268 -32.66088684 147.52105286 -32.96914673 148.20401001 C-34.50181585 151.47500248 -34.50181585 151.47500248 -35 155 C-9.92 155 15.16 155 41 155 C39.36764933 150.05602949 39.36764933 150.05602949 37.41870117 145.30664062 C37.11999619 144.64205841 36.8212912 143.9774762 36.51353455 143.29275513 C36.19324783 142.58770844 35.87296112 141.88266174 35.54296875 141.15625 C35.03371605 140.02508255 35.03371605 140.02508255 34.51417542 138.87106323 C33.7856956 137.25310787 33.05604095 135.63568104 32.32531738 134.01873779 C30.39583093 129.74751596 28.47678425 125.47161688 26.55859375 121.1953125 C26.17236847 120.33443024 25.78614319 119.47354797 25.38821411 118.58657837 C21.78417494 110.54104261 18.24909707 102.46665378 14.75 94.375 C14.23848389 93.19357422 13.72696777 92.01214844 13.19995117 90.79492188 C10.0753853 83.55371573 7.01533819 76.28734251 4 69 C3.67 69 3.34 69 3 69 Z " fill="#1E08FF" transform="translate(709,327)"/>
<path d="M0 0 C22.95718067 -0.50674332 45.75715915 3.69305422 65.37890625 16.12109375 C66.36890625 17.11109375 66.36890625 17.11109375 67.37890625 18.12109375 C67.03238393 22.43903837 65.1556853 25.91285401 63.21875 29.734375 C62.75475548 30.65599678 62.75475548 30.65599678 62.28138733 31.59623718 C61.29869044 33.54492935 60.30770351 35.48926488 59.31640625 37.43359375 C58.64593122 38.75948605 57.97600339 40.08565521 57.30664062 41.41210938 C55.67038407 44.65166626 54.026669 47.88737124 52.37890625 51.12109375 C49.20086099 49.57287968 46.36886704 47.79398445 43.44140625 45.80859375 C26.31028712 34.8592766 4.78929985 32.10913653 -15.05517578 36.14868164 C-34.07367853 40.77771344 -50.0964671 51.52456711 -60.62109375 68.12109375 C-75.18441508 92.95641105 -77.98511914 121.46182143 -71.10107422 149.21777344 C-65.47659783 169.6950896 -54.05398354 186.51830035 -35.62109375 197.12109375 C-15.35433764 207.7484573 8.82409828 207.50982934 30.37890625 201.12109375 C37.30042671 198.69987193 43.87797323 195.60900994 50.203125 191.90234375 C53.37890625 190.12109375 53.37890625 190.12109375 55.37890625 190.12109375 C56.80898646 194.19415996 58.2329772 198.26928801 59.65136719 202.34643555 C60.13472417 203.73308618 60.61973936 205.11915996 61.10644531 206.50463867 C61.80580578 208.49638873 62.49917343 210.4901383 63.19140625 212.484375 C63.61035156 213.68360596 64.02929688 214.88283691 64.4609375 216.1184082 C65.37890625 219.12109375 65.37890625 219.12109375 65.37890625 222.12109375 C56.07969132 227.89549069 47.029153 232.27985354 36.37890625 235.12109375 C35.31736328 235.4152417 35.31736328 235.4152417 34.234375 235.71533203 C3.30509203 243.99609234 -32.20583173 240.39547186 -60.09375 224.3125 C-86.8534951 208.09202281 -104.16307242 182.43955724 -111.5546875 152.31640625 C-119.13251792 118.01675277 -115.21206946 82.22737531 -96.62109375 52.12109375 C-93.86633479 47.92369875 -90.81090215 43.9960776 -87.62109375 40.12109375 C-86.70457031 38.95900391 -86.70457031 38.95900391 -85.76953125 37.7734375 C-67.0150727 15.14837793 -37.49758581 3.50198177 -8.93359375 0.37109375 C-5.9564723 0.18301674 -2.98154172 0.09970636 0 0 Z " fill="#1E08FF" transform="translate(1062.62109375,322.87890625)"/>
<path d="M0 0 C1.89963501 0.01027222 1.89963501 0.01027222 3.83764648 0.02075195 C13.36584961 0.18390402 21.6505116 1.19434957 30.625 4.4375 C31.69234375 4.79972656 32.7596875 5.16195313 33.859375 5.53515625 C40.58164677 8.05174276 51.28364414 12.30794313 54.43603516 19.21435547 C54.71421091 22.48705371 53.40522741 24.18030436 51.73046875 26.97265625 C51.10462891 28.02904297 50.47878906 29.08542969 49.83398438 30.17382812 C49.16689453 31.27146484 48.49980469 32.36910156 47.8125 33.5 C47.15701172 34.60150391 46.50152344 35.70300781 45.82617188 36.83789062 C43.49011498 40.75204122 41.1536957 44.64445644 38.625 48.4375 C35.72968124 47.07385657 33.22173253 45.48894248 30.625 43.625 C17.47514224 34.89400678 2.13104084 31.55489873 -13.43359375 34.61328125 C-21.04591877 36.74634975 -27.0315378 39.7248766 -31.375 46.4375 C-35.25702629 53.45986464 -35.50733572 61.33444034 -33.7890625 69.078125 C-27.38411402 87.76412147 -6.67675275 96.38426743 9.48696899 104.92086792 C32.9057193 117.30300495 54.46778683 131.79601935 63.5078125 157.99609375 C67.80541509 175.94312426 63.82992429 195.03751306 54.68359375 210.72216797 C45.14923225 226.17152773 27.78774195 234.16818439 10.75 238.3125 C-16.34636493 243.05081722 -46.02068585 238.32837039 -69.375 223.4375 C-71.50176517 221.85797265 -73.4214709 220.23263484 -75.375 218.4375 C-74.10097209 214.27575208 -72.53632252 210.66250573 -70.37109375 206.890625 C-69.50774414 205.37662109 -69.50774414 205.37662109 -68.62695312 203.83203125 C-67.72879883 202.27548828 -67.72879883 202.27548828 -66.8125 200.6875 C-65.62344698 198.60951857 -64.4346326 196.53140056 -63.24609375 194.453125 C-62.45609985 193.08075684 -62.45609985 193.08075684 -61.65014648 191.68066406 C-60.85702892 190.28545744 -60.09272376 188.87294752 -59.375 187.4375 C-55.42792134 188.08425024 -52.63829332 190.03765547 -49.3125 192.1875 C-33.26457944 202.25590294 -16.25496777 208.1546047 2.625 203.875 C10.93429805 201.77632979 18.57101746 198.35169917 23.1875 190.75 C26.77524581 182.48258575 27.1569294 172.57879287 24.0625 164.0625 C17.71478139 150.54871579 4.37129031 144.0366659 -8.375 137.625 C-10.77167275 136.40130146 -13.16503492 135.17118208 -15.55859375 133.94140625 C-16.71987793 133.34602051 -17.88116211 132.75063477 -19.07763672 132.13720703 C-41.00648394 120.8334432 -60.06456029 108.67654808 -68.6875 84.25 C-70.10256962 79.65249166 -71.18394972 75.25355917 -71.375 70.4375 C-71.4265625 69.27605469 -71.478125 68.11460937 -71.53125 66.91796875 C-72.06942718 48.89570468 -68.33205988 32.97356665 -55.75366211 19.60058594 C-40.93425062 4.66941418 -20.43234091 -0.1711022 0 0 Z " fill="#1E08FF" transform="translate(1777.375,323.5625)"/>
<path d="M0 0 C33.66 0 67.32 0 102 0 C102 10.56 102 21.12 102 32 C80.22 32 58.44 32 36 32 C36 52.79 36 73.58 36 95 C53.49 95 70.98 95 89 95 C89 105.89 89 116.78 89 128 C71.51 128 54.02 128 36 128 C36 152.09 36 176.18 36 201 C61.41 201 86.82 201 113 201 C113 211.56 113 222.12 113 233 C75.71 233 38.42 233 0 233 C0 156.11 0 79.22 0 0 Z " fill="#1E08FF" transform="translate(1865,327)"/>
<path d="M0 0 C51.15 0 102.3 0 155 0 C155 10.56 155 21.12 155 32 C135.2 32 115.4 32 95 32 C95 98.33 95 164.66 95 233 C83.12 233 71.24 233 59 233 C59 166.67 59 100.34 59 32 C39.53 32 20.06 32 0 32 C0 21.44 0 10.88 0 0 Z " fill="#1E08FF" transform="translate(797,327)"/>
<path d="M0 0 C11.88 0 23.76 0 36 0 C36 76.89 36 153.78 36 233 C24.12 233 12.24 233 0 233 C0 156.11 0 79.22 0 0 Z " fill="#1E08FF" transform="translate(1640,327)"/>
<path d="M0 0 C1.65 1.65 3.3 3.3 5 5 C-13.95178207 24.06843943 -32.91775718 43.1226591 -51.90085983 62.15992069 C-60.71415774 70.99903079 -69.52270205 79.84278346 -78.3203125 88.69750977 C-85.98582324 96.41276286 -93.66000026 104.11926931 -101.34483457 111.81527704 C-105.41586617 115.89284285 -109.4823397 119.97473675 -113.53847504 124.06712532 C-117.35258682 127.91505133 -121.17813393 131.75121621 -125.01295853 135.57849693 C-126.42182829 136.98874776 -127.82638462 138.40332237 -129.22636795 139.82239532 C-131.131721 141.75245698 -133.05168086 143.66666559 -134.97625732 145.57752991 C-135.81089795 146.43401685 -135.81089795 146.43401685 -136.66240001 147.30780655 C-138.22767258 148.84291172 -138.22767258 148.84291172 -141 151 C-143.37648392 150.83890438 -143.37648392 150.83890438 -145 150 C-145.83890438 148.37648392 -145.83890438 148.37648392 -146 146 C-144.26807882 143.77410474 -142.58427732 141.93181887 -140.57752991 139.97625732 C-139.98218569 139.37664098 -139.38684147 138.77702464 -138.77345651 138.1592381 C-136.76441221 136.14192164 -134.73794668 134.14305532 -132.71118164 132.14355469 C-131.27185039 130.70563298 -129.83361761 129.26661099 -128.39640808 127.8265686 C-124.48197397 123.9106953 -120.55227438 120.01046761 -116.61974645 116.11277676 C-112.51620549 112.04041529 -108.42674624 107.95396416 -104.33580017 103.86895752 C-96.58255432 96.1312748 -88.81664678 88.40642943 -81.04616016 80.68606496 C-72.20219411 71.89791536 -63.37236008 63.09562551 -54.54371083 54.2920928 C-36.37820439 36.1789005 -18.19493785 18.08362442 0 0 Z " fill="#1D07FF" transform="translate(484,99)"/>
<path d="M0 0 C4.40556761 0.2476102 6.92551136 3.5174172 9.83392334 6.47315979 C10.41312192 7.0497951 10.9923205 7.62643041 11.58907056 8.22053951 C13.5324054 10.1589241 15.46480845 12.10785351 17.39746094 14.05688477 C18.78655154 15.44682137 20.17630265 16.83609814 21.56666565 18.22476196 C25.34371712 22.00095101 29.11143324 25.78633312 32.87757778 29.57339597 C36.81336109 33.52790477 40.75761444 37.47394661 44.70098877 41.42088318 C52.16902408 48.89825109 59.62937772 56.38323501 67.08702207 63.87096494 C75.57681106 72.39426012 84.07509752 80.90906091 92.57411909 89.42314827 C110.05890448 106.9393102 127.5329569 124.46614677 145 142 C144.34 143.32 143.68 144.64 143 146 C138.54361836 146 137.8351908 145.30747595 134.78860348 142.3282392 C134.25094902 141.78234397 133.71329456 141.23644874 133.15934753 140.67401123 C132.57944339 140.10105261 131.99953924 139.52809399 131.40206224 138.93777299 C129.45394739 137.00801055 127.52049682 135.06418989 125.58666992 133.12011719 C124.19613437 131.73663581 122.80475638 130.35400072 121.41259766 128.97215271 C117.62869831 125.21081083 113.85769119 121.43678586 110.08949065 117.65972424 C106.9468908 114.51202575 103.79812548 111.37053244 100.64932901 108.22903466 C93.22434799 100.82107227 85.80973072 93.40284896 78.40161133 85.97802734 C70.74775871 78.30724252 63.07765403 70.65299437 55.39920157 63.00684047 C48.81600559 56.45029342 42.24251055 49.8841343 35.67687684 43.31000066 C31.7515326 39.37971461 27.82265501 35.45313331 23.88463402 31.53554535 C20.18394937 27.85314446 16.49551045 24.15890923 12.81632233 20.45503426 C11.46088756 19.09456881 10.10113676 17.73838844 8.73689461 16.38675499 C6.88142052 14.54708423 5.04188878 12.69284713 3.20573425 10.83392334 C2.65692618 10.296951 2.10811811 9.75997865 1.54267949 9.20673442 C0.06782818 7.69424057 0.06782818 7.69424057 -2 5 C-1.88507367 2.6407131 -1.65879191 1.65879191 0 0 Z " fill="#1F08FF" transform="translate(97,108)"/>
<path d="M0 0 C1.98 0 3.96 0 6 0 C6 67.65 6 135.3 6 205 C4.02 205 2.04 205 0 205 C0 137.35 0 69.7 0 0 Z " fill="#1E08FF" transform="translate(288,19)"/>
<path d="M0 0 C1.98 1.485 1.98 1.485 4 3 C2.38190358 7.0595972 -0.50666941 9.78013632 -3.55545044 12.79595947 C-4.12885662 13.3710745 -4.7022628 13.94618953 -5.29304492 14.53873229 C-7.21684534 16.46582859 -9.14770997 18.38568669 -11.07861328 20.30566406 C-12.45863062 21.68511731 -13.83820781 23.06501099 -15.21737671 24.4453125 C-18.96473924 28.19324962 -22.71824298 31.93498172 -26.47286081 35.67564869 C-30.39488887 39.58518719 -34.3112663 43.50037772 -38.22824097 47.41497803 C-45.64736167 54.82787875 -53.07156659 62.23566581 -60.49760139 69.64163947 C-68.95124321 78.07293844 -77.39921707 86.50990677 -85.84671426 94.94736147 C-103.22483334 112.30456681 -120.61007552 129.65462291 -138 147 C-139.32 146.34 -140.64 145.68 -142 145 C-142 141.30008024 -140.79255845 140.43561413 -138.2834177 137.89617378 C-137.45464571 137.08050957 -137.45464571 137.08050957 -136.60913086 136.24836731 C-136.02926642 135.6659396 -135.44940199 135.08351189 -134.8519659 134.48343486 C-132.89666289 132.52316932 -130.9307898 130.57385488 -128.96484375 128.62426758 C-127.56520269 127.22547225 -126.16622094 125.82601694 -124.76785278 124.4259491 C-120.9606146 120.61784745 -117.14417377 116.81908919 -113.32606888 113.02188706 C-109.34086621 109.05539281 -105.36411417 105.08044499 -101.38647461 101.10636902 C-93.84886388 93.57809593 -86.30363595 86.05750507 -78.7556715 78.53961438 C-70.16469395 69.98212736 -61.58219714 61.41615657 -53.00041771 52.84944689 C-35.34306157 35.22347873 -17.67503137 17.60824242 0 0 Z " fill="#1E08FF" transform="translate(253,351)"/>
<path d="M0 0 C66 0 132 0 200 0 C200 1.65 200 3.3 200 5 C134 5 68 5 0 5 C0 3.35 0 1.7 0 0 Z " fill="#1F09FF" transform="translate(33,306)"/>
</svg>
