<?xml version="1.0" encoding="UTF-8"?>
<!DOCTYPE svg PUBLIC "-//W3C//DTD SVG 1.1//EN" "http://www.w3.org/Graphics/SVG/1.1/DTD/svg11.dtd">
<svg xmlns="http://www.w3.org/2000/svg" version="1.1" width="403px" height="229px" style="shape-rendering:geometricPrecision; text-rendering:geometricPrecision; image-rendering:optimizeQuality; fill-rule:evenodd; clip-rule:evenodd" xmlns:xlink="http://www.w3.org/1999/xlink">
<g><path style="opacity:0.063" fill="#131020" d="M 56.5,46.5 C 55.8519,60.2086 56.5186,73.5419 58.5,86.5C 57.791,87.404 56.791,87.7373 55.5,87.5C 55.171,73.6565 55.5043,59.9898 56.5,46.5 Z"/></g>
<g><path style="opacity:0.725" fill="#5748b8" d="M 56.5,46.5 C 58.4814,59.4581 59.1481,72.7914 58.5,86.5C 56.5186,73.5419 55.8519,60.2086 56.5,46.5 Z"/></g>
<g><path style="opacity:0.212" fill="#5f5e75" d="M 93.5,65.5 C 94.6602,63.7973 93.9935,63.1307 91.5,63.5C 93.0878,60.7817 94.4212,60.9484 95.5,64C 95.1639,65.0299 94.4972,65.5299 93.5,65.5 Z"/></g>
<g><path style="opacity:0.051" fill="#1f1d2b" d="M 20.5,63.5 C 21.044,65.7155 22.044,67.7155 23.5,69.5C 20.2696,68.3774 19.2696,66.3774 20.5,63.5 Z"/></g>
<g><path style="opacity:0.004" fill="#242231" d="M 24.5,71.5 C 29.4448,74.7758 33.7782,78.7758 37.5,83.5C 32.5138,80.1794 28.1804,76.1794 24.5,71.5 Z"/></g>
<g><path style="opacity:0.639" fill="#4e478a" d="M 91.5,63.5 C 93.9935,63.1307 94.6602,63.7973 93.5,65.5C 93.631,66.2389 93.4643,66.9056 93,67.5C 89.583,70.762 86.083,73.762 82.5,76.5C 83.3029,75.5768 83.4696,74.5768 83,73.5C 80.6303,76.0386 78.1303,78.3719 75.5,80.5C 80.1072,74.2238 85.4405,68.5572 91.5,63.5 Z"/></g>
<g><path style="opacity:0.494" fill="#6559b3" d="M 20.5,63.5 C 30.2232,71.7041 39.5565,80.3707 48.5,89.5C 47.7893,91.8418 46.456,92.1751 44.5,90.5C 43.1594,87.8134 41.4928,86.1468 39.5,85.5C 38.5,85.1667 37.8333,84.5 37.5,83.5C 33.7782,78.7758 29.4448,74.7758 24.5,71.5C 24.1667,70.8333 23.8333,70.1667 23.5,69.5C 22.044,67.7155 21.044,65.7155 20.5,63.5 Z"/></g>
<g><path style="opacity:0.682" fill="#453dad" d="M 82.5,76.5 C 82.2178,77.7777 81.5511,78.7777 80.5,79.5C 78.9557,79.7031 77.6223,80.3698 76.5,81.5C 75.8933,81.3764 75.56,81.0431 75.5,80.5C 78.1303,78.3719 80.6303,76.0386 83,73.5C 83.4696,74.5768 83.3029,75.5768 82.5,76.5 Z"/></g>
<g><path style="opacity:0.616" fill="#514b84" d="M 80.5,79.5 C 78.7607,82.2427 76.4274,84.2427 73.5,85.5C 74.3029,84.5768 74.4696,83.5768 74,82.5C 72.871,84.1412 71.371,85.1412 69.5,85.5C 70.9108,83.086 72.9108,81.4194 75.5,80.5C 75.56,81.0431 75.8933,81.3764 76.5,81.5C 77.6223,80.3698 78.9557,79.7031 80.5,79.5 Z"/></g>
<g><path style="opacity:0.663" fill="#443ca6" d="M 73.5,85.5 C 73.5,86.8333 72.8333,87.5 71.5,87.5C 70.399,88.7997 69.0657,89.2997 67.5,89C 68.8228,88.1841 69.4894,87.0174 69.5,85.5C 71.371,85.1412 72.871,84.1412 74,82.5C 74.4696,83.5768 74.3029,84.5768 73.5,85.5 Z"/></g>
<g><path style="opacity:0.275" fill="#4a4676" d="M 69.5,85.5 C 69.4894,87.0174 68.8228,88.1841 67.5,89C 69.0657,89.2997 70.399,88.7997 71.5,87.5C 70.7238,90.7142 68.7238,92.2142 65.5,92C 65.1312,89.1225 66.4645,86.9558 69.5,85.5 Z"/></g>
<g><path style="opacity:0.004" fill="#201e2d" d="M 44.5,90.5 C 43.7611,90.631 43.0944,90.4643 42.5,90C 41.252,88.6003 40.252,87.1003 39.5,85.5C 41.4928,86.1468 43.1594,87.8134 44.5,90.5 Z"/></g>
<g><path style="opacity:0.235" fill="#69657f" d="M 48.5,89.5 C 49.8672,91.0927 49.5339,92.4261 47.5,93.5C 45.7869,93.1207 44.7869,92.1207 44.5,90.5C 46.456,92.1751 47.7893,91.8418 48.5,89.5 Z"/></g>
<g><path style="opacity:0.184" fill="#48468e" d="M 9.5,100.5 C 21.8333,100.5 34.1667,100.5 46.5,100.5C 34.7014,102.16 22.7014,103.16 10.5,103.5C 9.59603,102.791 9.26269,101.791 9.5,100.5 Z"/></g>
<g><path style="opacity:0.417" fill="#9c9adb" d="M 46.5,100.5 C 47.404,101.209 47.7373,102.209 47.5,103.5C 35.1667,103.5 22.8333,103.5 10.5,103.5C 22.7014,103.16 34.7014,102.16 46.5,100.5 Z"/></g>
<g><path style="opacity:0.056" fill="#40404c" d="M 9.5,100.5 C 9.26269,101.791 9.59603,102.791 10.5,103.5C 22.8333,103.5 35.1667,103.5 47.5,103.5C 34.6774,104.495 21.6774,104.829 8.5,104.5C 8.23219,102.901 8.56552,101.568 9.5,100.5 Z"/></g>
<g><path style="opacity:0.122" fill="#464093" d="M 64.5,104.5 C 67.6981,103.964 70.3647,104.631 72.5,106.5C 69.6904,104.822 67.357,105.155 65.5,107.5C 64.596,106.791 64.2627,105.791 64.5,104.5 Z"/></g>
<g><path style="opacity:0.075" fill="#56517e" d="M 95.5,106.5 C 94.7611,106.369 94.0944,106.536 93.5,107C 92.9473,108.878 91.9473,110.378 90.5,111.5C 90.6099,108.614 91.7766,106.28 94,104.5C 95.0299,104.836 95.5299,105.503 95.5,106.5 Z"/></g>
<g><path style="opacity:0.125" fill="#433c7a" d="M 122.5,110.5 C 122.5,108.833 122.5,107.167 122.5,105.5C 119.014,104.829 116.347,105.829 114.5,108.5C 114.33,107.178 114.663,106.011 115.5,105C 118.146,104.503 120.813,104.336 123.5,104.5C 123.795,106.735 123.461,108.735 122.5,110.5 Z"/></g>
<g><path style="opacity:0.122" fill="#3d377d" d="M 170.5,112.5 C 170.5,112.167 170.5,111.833 170.5,111.5C 173.833,111.5 177.167,111.5 180.5,111.5C 180.5,109.5 180.5,107.5 180.5,105.5C 171.167,105.5 161.833,105.5 152.5,105.5C 152.5,107.5 152.5,109.5 152.5,111.5C 152.167,111.5 151.833,111.5 151.5,111.5C 150.189,109.44 150.189,107.274 151.5,105C 161.494,104.5 171.494,104.334 181.5,104.5C 181.5,107.167 181.5,109.833 181.5,112.5C 177.833,112.5 174.167,112.5 170.5,112.5 Z"/></g>
<g><path style="opacity:0.18" fill="#40358c" d="M 194.5,105.5 C 199.65,104.349 204.984,104.183 210.5,105C 211.416,105.278 212.082,105.778 212.5,106.5C 211.5,106.5 210.5,106.5 209.5,106.5C 204.695,105.513 199.695,105.179 194.5,105.5 Z"/></g>
<g><path style="opacity:0.125" fill="#363283" d="M 352.5,105.5 C 352.5,105.167 352.5,104.833 352.5,104.5C 359.255,103.877 365.588,104.544 371.5,106.5C 365.256,105.542 358.923,105.209 352.5,105.5 Z"/></g>
<g><path style="opacity:0.447" fill="#524c87" d="M 138.5,107.5 C 137.292,106.766 135.959,106.433 134.5,106.5C 134.47,105.503 134.97,104.836 136,104.5C 137.749,104.748 138.582,105.748 138.5,107.5 Z"/></g>
<g><path style="opacity:0.337" fill="#6a668d" d="M 280.5,108.5 C 278.246,105.996 276.912,106.663 276.5,110.5C 275.101,113.629 273.435,116.629 271.5,119.5C 272.986,115.188 274.486,110.855 276,106.5C 278.869,103.682 280.369,104.348 280.5,108.5 Z"/></g>
<g><path style="opacity:0.729" fill="#503ec2" d="M 300.5,106.5 C 302.948,105.527 305.615,105.194 308.5,105.5C 308.167,106.833 307.833,108.167 307.5,109.5C 307.672,110.492 307.338,111.158 306.5,111.5C 306.5,109.833 306.5,108.167 306.5,106.5C 304.5,106.5 302.5,106.5 300.5,106.5 Z"/></g>
<g><path style="opacity:0.31" fill="#4e409d" d="M 329.5,105.5 C 333.646,104.353 337.98,104.186 342.5,105C 344.305,105.972 345.972,107.139 347.5,108.5C 346.807,109.518 346.141,110.518 345.5,111.5C 345.167,111.5 344.833,111.5 344.5,111.5C 345.035,108.762 344.035,106.928 341.5,106C 337.514,105.501 333.514,105.334 329.5,105.5 Z"/></g>
<g><path style="opacity:0.188" fill="#403b6e" d="M 194.5,105.5 C 193.232,107.047 191.565,108.047 189.5,108.5C 190.486,106.592 192.152,105.592 194.5,105.5 Z"/></g>
<g><path style="opacity:0.118" fill="#111127" d="M 352.5,104.5 C 352.5,104.833 352.5,105.167 352.5,105.5C 352.5,120.167 352.5,134.833 352.5,149.5C 359.167,149.5 365.833,149.5 372.5,149.5C 372.833,149.5 373.167,149.5 373.5,149.5C 366.352,150.492 359.019,150.825 351.5,150.5C 351.17,134.991 351.504,119.658 352.5,104.5 Z"/></g>
<g><path style="opacity:1" fill="#200bf5" d="M 170.5,111.5 C 169.505,123.655 169.171,135.989 169.5,148.5C 167.833,148.5 166.167,148.5 164.5,148.5C 164.828,136.322 164.495,124.322 163.5,112.5C 163.5,111.833 163.167,111.5 162.5,111.5C 162.389,110.883 162.056,110.383 161.5,110C 158.854,109.503 156.187,109.336 153.5,109.5C 153.5,108.5 153.5,107.5 153.5,106.5C 162.167,106.5 170.833,106.5 179.5,106.5C 179.5,107.5 179.5,108.5 179.5,109.5C 175.988,108.945 172.988,109.612 170.5,111.5 Z"/></g>
<g><path style="opacity:0.055" fill="#8683a1" d="M 212.5,106.5 C 213.5,106.5 214.5,106.5 215.5,106.5C 215.768,108.099 215.434,109.432 214.5,110.5C 214.473,108.801 213.806,107.467 212.5,106.5 Z"/></g>
<g><path style="opacity:1" fill="#301be9" d="M 329.5,105.5 C 333.514,105.334 337.514,105.501 341.5,106C 344.035,106.928 345.035,108.762 344.5,111.5C 344.189,112.478 343.522,113.145 342.5,113.5C 341.264,112.754 339.93,112.421 338.5,112.5C 336.594,110.006 334.594,110.006 332.5,112.5C 330.852,114.456 330.185,116.789 330.5,119.5C 329.504,119.586 328.671,119.252 328,118.5C 327.506,116.866 327.34,115.199 327.5,113.5C 326.5,113.5 325.5,113.5 324.5,113.5C 324.274,116.249 324.607,118.916 325.5,121.5C 328.865,124.198 331.865,127.198 334.5,130.5C 333.833,130.5 333.167,130.5 332.5,130.5C 325.002,126.84 321.669,120.84 322.5,112.5C 324.5,109.833 326.833,107.5 329.5,105.5 Z"/></g>
<g><path style="opacity:1" fill="#3522df" d="M 72.5,106.5 C 72.1201,108.698 72.7868,110.365 74.5,111.5C 75.4345,112.568 75.7678,113.901 75.5,115.5C 73.1374,113.43 71.4708,110.763 70.5,107.5C 69.4593,109.991 68.6259,109.991 68,107.5C 67.9822,109.797 68.1489,112.131 68.5,114.5C 66.9348,112.491 65.9348,110.157 65.5,107.5C 67.357,105.155 69.6904,104.822 72.5,106.5 Z"/></g>
<g><path style="opacity:0.259" fill="#3d366d" d="M 329.5,105.5 C 326.833,107.5 324.5,109.833 322.5,112.5C 322.5,112.167 322.5,111.833 322.5,111.5C 323.599,108.068 325.933,106.068 329.5,105.5 Z"/></g>
<g><path style="opacity:1" fill="#200bf7" d="M 361.5,111.5 C 360.167,111.5 358.833,111.5 357.5,111.5C 357.5,113.833 357.5,116.167 357.5,118.5C 356.566,117.432 356.232,116.099 356.5,114.5C 355.5,114.5 354.5,114.5 353.5,114.5C 353.5,111.833 353.5,109.167 353.5,106.5C 358.833,106.5 364.167,106.5 369.5,106.5C 369.5,107.833 369.5,109.167 369.5,110.5C 366.615,110.194 363.948,110.527 361.5,111.5 Z"/></g>
<g><path style="opacity:0.694" fill="#7769bb" d="M 72.5,106.5 C 73.5375,107.93 74.2041,109.597 74.5,111.5C 72.7868,110.365 72.1201,108.698 72.5,106.5 Z"/></g>
<g><path style="opacity:1" fill="#3322e1" d="M 170.5,111.5 C 172.988,109.612 175.988,108.945 179.5,109.5C 179.5,108.5 179.5,107.5 179.5,106.5C 170.833,106.5 162.167,106.5 153.5,106.5C 153.5,107.5 153.5,108.5 153.5,109.5C 156.187,109.336 158.854,109.503 161.5,110C 162.056,110.383 162.389,110.883 162.5,111.5C 159.167,111.5 155.833,111.5 152.5,111.5C 152.5,109.5 152.5,107.5 152.5,105.5C 161.833,105.5 171.167,105.5 180.5,105.5C 180.5,107.5 180.5,109.5 180.5,111.5C 177.167,111.5 173.833,111.5 170.5,111.5 Z"/></g>
<g><path style="opacity:0.553" fill="#5d55b5" d="M 240.5,105.5 C 240.5,105.167 240.5,104.833 240.5,104.5C 246.026,104.179 251.36,104.512 256.5,105.5C 253.612,104.99 251.279,105.656 249.5,107.5C 249.167,107.5 248.833,107.5 248.5,107.5C 247.504,121.323 247.171,135.323 247.5,149.5C 244.941,149.802 242.607,149.468 240.5,148.5C 242.5,148.5 244.5,148.5 246.5,148.5C 246.5,134.167 246.5,119.833 246.5,105.5C 244.5,105.5 242.5,105.5 240.5,105.5 Z"/></g>
<g><path style="opacity:0.373" fill="#3b2f6e" d="M 189.5,108.5 C 187.5,111.167 185.167,113.5 182.5,115.5C 183.833,112.167 186.167,109.833 189.5,108.5 Z"/></g>
<g><path style="opacity:0.431" fill="#433d80" d="M 134.5,106.5 C 134.5,107.833 134.5,109.167 134.5,110.5C 133.728,111.694 132.728,112.694 131.5,113.5C 131.707,110.759 132.707,108.426 134.5,106.5 Z"/></g>
<g><path style="opacity:1" fill="#301aed" d="M 142.5,119.5 C 141.542,119.047 140.708,118.381 140,117.5C 139.833,118.667 139.667,119.833 139.5,121C 140.913,124.828 142.247,128.662 143.5,132.5C 143.672,133.492 143.338,134.158 142.5,134.5C 140.777,135.8 138.61,136.467 136,136.5C 132.33,136.617 128.83,135.951 125.5,134.5C 123.959,135.286 122.626,136.286 121.5,137.5C 124.128,131.249 126.462,124.916 128.5,118.5C 130.408,117.514 131.408,115.848 131.5,113.5C 132.728,112.694 133.728,111.694 134.5,110.5C 135.575,109.438 136.575,109.438 137.5,110.5C 138.936,113.714 140.603,116.714 142.5,119.5 Z M 135.5,122.5 C 136.728,123.306 137.728,124.306 138.5,125.5C 139.167,128.167 139.833,130.833 140.5,133.5C 137.5,133.5 134.5,133.5 131.5,133.5C 132.167,131.167 132.833,128.833 133.5,126.5C 134.674,125.486 135.34,124.153 135.5,122.5 Z"/></g>
<g><path style="opacity:0.063" fill="#352f56" d="M 213.5,112.5 C 213.582,114.252 212.749,115.252 211,115.5C 206.182,112.393 201.015,111.726 195.5,113.5C 200.516,110.922 205.683,110.922 211,113.5C 211.902,113.257 212.735,112.923 213.5,112.5 Z"/></g>
<g><path style="opacity:0.435" fill="#392c99" d="M 217.5,105.5 C 219.948,104.527 222.615,104.194 225.5,104.5C 225.5,110.5 225.5,116.5 225.5,122.5C 224.511,117.025 224.178,111.358 224.5,105.5C 222.5,105.5 220.5,105.5 218.5,105.5C 218.167,105.5 217.833,105.5 217.5,105.5 Z"/></g>
<g><path style="opacity:0.09" fill="#37355b" d="M 308.5,104.5 C 308.5,104.833 308.5,105.167 308.5,105.5C 305.615,105.194 302.948,105.527 300.5,106.5C 299.277,110.44 297.61,114.107 295.5,117.5C 296.687,113.075 298.021,108.741 299.5,104.5C 302.5,104.5 305.5,104.5 308.5,104.5 Z"/></g>
<g><path style="opacity:0.012" fill="#544d78" d="M 338.5,112.5 C 336.5,112.5 334.5,112.5 332.5,112.5C 334.594,110.006 336.594,110.006 338.5,112.5 Z"/></g>
<g><path style="opacity:0.416" fill="#5a4e8d" d="M 122.5,110.5 C 122.204,112.403 121.537,114.07 120.5,115.5C 120.5,114.167 120.5,112.833 120.5,111.5C 121.167,111.167 121.833,110.833 122.5,110.5 Z"/></g>
<g><path style="opacity:0.102" fill="#312d50" d="M 344.5,111.5 C 344.833,111.5 345.167,111.5 345.5,111.5C 343.872,116.475 341.539,116.809 338.5,112.5C 339.93,112.421 341.264,112.754 342.5,113.5C 343.522,113.145 344.189,112.478 344.5,111.5 Z"/></g>
<g><path style="opacity:0.024" fill="#252435" d="M 90.5,111.5 C 90.5,112.167 90.5,112.833 90.5,113.5C 89.8333,114.167 89.1667,114.833 88.5,115.5C 88.2291,113.62 88.8958,112.287 90.5,111.5 Z"/></g>
<g><path style="opacity:1" fill="#2918da" d="M 218.5,105.5 C 220.5,105.5 222.5,105.5 224.5,105.5C 224.178,111.358 224.511,117.025 225.5,122.5C 229.97,123.486 234.637,123.819 239.5,123.5C 235.366,124.485 231.032,124.818 226.5,124.5C 225.504,124.586 224.671,124.252 224,123.5C 223.501,117.843 223.334,112.176 223.5,106.5C 222.167,106.5 220.833,106.5 219.5,106.5C 219.5,111.833 219.5,117.167 219.5,122.5C 219.5,130.833 219.5,139.167 219.5,147.5C 220.833,147.5 222.167,147.5 223.5,147.5C 223.177,141.31 223.51,135.31 224.5,129.5C 224.5,135.833 224.5,142.167 224.5,148.5C 222.5,148.5 220.5,148.5 218.5,148.5C 218.5,134.167 218.5,119.833 218.5,105.5 Z"/></g>
<g><path style="opacity:1" fill="#200af9" d="M 240.5,106.5 C 242.167,106.5 243.833,106.5 245.5,106.5C 245.5,114.167 245.5,121.833 245.5,129.5C 245.028,127.469 244.028,125.802 242.5,124.5C 242.33,123.178 242.663,122.011 243.5,121C 241.959,118.323 240.959,115.49 240.5,112.5C 240.5,110.5 240.5,108.5 240.5,106.5 Z"/></g>
<g><path style="opacity:0.278" fill="#776fba" d="M 306.5,111.5 C 306.34,113.153 305.674,114.486 304.5,115.5C 304.229,113.62 304.896,112.287 306.5,111.5 Z"/></g>
<g><path style="opacity:0.094" fill="#8d87bf" d="M 140.5,112.5 C 141.906,112.973 142.573,113.973 142.5,115.5C 141.094,115.027 140.427,114.027 140.5,112.5 Z"/></g>
<g><path style="opacity:1" fill="#3621e6" d="M 256.5,105.5 C 258.081,107.142 258.747,109.142 258.5,111.5C 258.5,112.833 258.5,114.167 258.5,115.5C 256.561,116.014 255.561,117.347 255.5,119.5C 255.846,120.849 256.179,122.183 256.5,123.5C 253.426,118.655 251.093,113.322 249.5,107.5C 251.279,105.656 253.612,104.99 256.5,105.5 Z"/></g>
<g><path style="opacity:0.839" fill="#715ec2" d="M 258.5,111.5 C 260.733,114.39 262.066,117.723 262.5,121.5C 261.143,120.41 260.143,119.076 259.5,117.5C 259.672,116.508 259.338,115.842 258.5,115.5C 258.5,114.167 258.5,112.833 258.5,111.5 Z"/></g>
<g><path style="opacity:1" fill="#2410f3" d="M 273.5,132.5 C 273.167,133.167 272.833,133.833 272.5,134.5C 271.833,135.5 271.167,136.5 270.5,137.5C 270.928,134.436 271.594,131.436 272.5,128.5C 271.041,128.433 269.708,128.766 268.5,129.5C 269.808,126.27 270.808,122.936 271.5,119.5C 273.435,116.629 275.101,113.629 276.5,110.5C 277.688,109.316 278.855,109.316 280,110.5C 282.641,115.674 281.475,119.674 276.5,122.5C 274.89,125.684 273.89,129.017 273.5,132.5 Z"/></g>
<g><path style="opacity:1" fill="#321cee" d="M 75.5,115.5 C 77.2132,116.635 77.8799,118.302 77.5,120.5C 77.1663,123.491 78.1663,125.824 80.5,127.5C 80.3284,128.492 80.6618,129.158 81.5,129.5C 81.3284,130.492 81.6618,131.158 82.5,131.5C 82.2172,132.289 81.7172,132.956 81,133.5C 80.1376,131.913 79.4709,130.246 79,128.5C 77.9887,127.663 76.8221,127.33 75.5,127.5C 75.6906,130.983 76.3573,134.316 77.5,137.5C 73.5377,130.292 70.5377,122.625 68.5,114.5C 68.1489,112.131 67.9822,109.797 68,107.5C 68.6259,109.991 69.4593,109.991 70.5,107.5C 71.4708,110.763 73.1374,113.43 75.5,115.5 Z"/></g>
<g><path style="opacity:1" fill="#4731d2" d="M 134.5,106.5 C 135.959,106.433 137.292,106.766 138.5,107.5C 139.441,109.05 140.107,110.716 140.5,112.5C 140.427,114.027 141.094,115.027 142.5,115.5C 144.105,118.378 145.439,121.378 146.5,124.5C 146.167,124.5 145.833,124.5 145.5,124.5C 143.777,123.395 142.777,121.728 142.5,119.5C 140.603,116.714 138.936,113.714 137.5,110.5C 136.575,109.438 135.575,109.438 134.5,110.5C 134.5,109.167 134.5,107.833 134.5,106.5 Z"/></g>
<g><path style="opacity:1" fill="#1f0afa" d="M 258.5,115.5 C 259.338,115.842 259.672,116.508 259.5,117.5C 260.355,120.486 260.855,123.486 261,126.5C 259.249,125.778 257.749,124.778 256.5,123.5C 256.179,122.183 255.846,120.849 255.5,119.5C 255.561,117.347 256.561,116.014 258.5,115.5 Z"/></g>
<g><path style="opacity:0.965" fill="#6348cf" d="M 96.5,108.5 C 98.3459,111.54 99.6792,114.873 100.5,118.5C 97.5688,115.987 96.2355,112.653 96.5,108.5 Z"/></g>
<g><path style="opacity:0.176" fill="#544e7b" d="M 114.5,108.5 C 114.333,112.673 113,116.34 110.5,119.5C 111.065,115.463 112.399,111.797 114.5,108.5 Z"/></g>
<g><path style="opacity:0.847" fill="#6451bf" d="M 282.5,113.5 C 283.751,115.382 284.918,117.382 286,119.5C 286.49,120.793 286.657,122.127 286.5,123.5C 284.103,120.691 282.77,117.358 282.5,113.5 Z"/></g>
<g><path style="opacity:1" fill="#2411f2" d="M 95.5,106.5 C 95.3284,107.492 95.6618,108.158 96.5,108.5C 96.2355,112.653 97.5688,115.987 100.5,118.5C 100.833,121.167 101.167,123.833 101.5,126.5C 100.849,125.909 100.182,125.243 99.5,124.5C 98.7025,124.957 98.3691,125.624 98.5,126.5C 97.3994,125.152 96.3994,123.652 95.5,122C 95.8333,121.667 96.1667,121.333 96.5,121C 94.1902,120.503 91.8568,120.337 89.5,120.5C 89.9926,118.194 90.3259,115.861 90.5,113.5C 90.5,112.833 90.5,112.167 90.5,111.5C 91.9473,110.378 92.9473,108.878 93.5,107C 94.0944,106.536 94.7611,106.369 95.5,106.5 Z"/></g>
<g><path style="opacity:0.412" fill="#544f80" d="M 131.5,113.5 C 131.408,115.848 130.408,117.514 128.5,118.5C 128.75,116.326 129.75,114.659 131.5,113.5 Z"/></g>
<g><path style="opacity:0.09" fill="#13122b" d="M 151.5,111.5 C 151.833,111.5 152.167,111.5 152.5,111.5C 155.833,111.5 159.167,111.5 162.5,111.5C 163.167,111.5 163.5,111.833 163.5,112.5C 163.5,124.833 163.5,137.167 163.5,149.5C 165.833,149.5 168.167,149.5 170.5,149.5C 168.052,150.473 165.385,150.806 162.5,150.5C 162.5,137.833 162.5,125.167 162.5,112.5C 158.629,112.815 154.962,112.482 151.5,111.5 Z"/></g>
<g><path style="opacity:0.596" fill="#4a418e" d="M 48.5,109.5 C 49.5,109.5 50.5,109.5 51.5,109.5C 51.762,110.978 51.4287,112.311 50.5,113.5C 42.4572,121.509 34.4572,129.509 26.5,137.5C 25.3112,138.429 23.9778,138.762 22.5,138.5C 22.3505,137.448 22.5172,136.448 23,135.5C 31.7023,126.965 40.2023,118.298 48.5,109.5 Z"/></g>
<g><path style="opacity:0.282" fill="#47436f" d="M 88.5,115.5 C 88.8799,117.698 88.2132,119.365 86.5,120.5C 86.4021,118.447 87.0687,116.78 88.5,115.5 Z"/></g>
<g><path style="opacity:0.176" fill="#8a86b1" d="M 120.5,115.5 C 120.598,117.553 119.931,119.22 118.5,120.5C 118.402,118.447 119.069,116.78 120.5,115.5 Z"/></g>
<g><path style="opacity:1" fill="#2d19e9" d="M 300.5,106.5 C 302.5,106.5 304.5,106.5 306.5,106.5C 306.5,108.167 306.5,109.833 306.5,111.5C 304.896,112.287 304.229,113.62 304.5,115.5C 304.5,115.833 304.5,116.167 304.5,116.5C 301.611,119.491 300.278,123.158 300.5,127.5C 299.976,129.306 299.309,130.972 298.5,132.5C 298.636,129.65 298.969,126.817 299.5,124C 299.16,119.64 297.993,119.473 296,123.5C 295.536,122.906 295.369,122.239 295.5,121.5C 295.5,120.167 295.5,118.833 295.5,117.5C 297.61,114.107 299.277,110.44 300.5,106.5 Z"/></g>
<g><path style="opacity:1" fill="#2c19ee" d="M 120.5,111.5 C 120.5,112.833 120.5,114.167 120.5,115.5C 119.069,116.78 118.402,118.447 118.5,120.5C 118.5,120.833 118.5,121.167 118.5,121.5C 116.824,122.183 116.157,123.517 116.5,125.5C 116.5,125.833 116.5,126.167 116.5,126.5C 114.896,127.287 114.229,128.62 114.5,130.5C 114.167,130.5 113.833,130.5 113.5,130.5C 113.203,127.276 113.87,124.276 115.5,121.5C 114.617,120.452 113.95,119.285 113.5,118C 114.743,114.859 115.91,111.692 117,108.5C 118.011,107.663 119.178,107.33 120.5,107.5C 120.5,108.833 120.5,110.167 120.5,111.5 Z"/></g>
<g><path style="opacity:0.974" fill="#1f0af8" d="M 209.5,106.5 C 210.806,107.467 211.473,108.801 211.5,110.5C 204.214,109.846 197.214,110.846 190.5,113.5C 187.77,121.516 186.77,129.85 187.5,138.5C 189.292,138.366 190.958,138.699 192.5,139.5C 192.5,139.833 192.5,140.167 192.5,140.5C 192.5,141.833 192.5,143.167 192.5,144.5C 190.784,144.371 189.117,144.038 187.5,143.5C 186.5,143.167 185.833,142.5 185.5,141.5C 183.959,137.836 182.959,134.003 182.5,130C 182.675,128.342 183.342,127.009 184.5,126C 183.383,122.927 183.216,119.76 184,116.5C 190.315,107.704 198.815,104.371 209.5,106.5 Z"/></g>
<g><path style="opacity:0.999" fill="#3c27da" d="M 280.5,108.5 C 281.931,109.78 282.598,111.447 282.5,113.5C 282.77,117.358 284.103,120.691 286.5,123.5C 288.689,125.224 289.856,127.558 290,130.5C 290.278,129.584 290.778,128.918 291.5,128.5C 291.473,130.199 290.806,131.533 289.5,132.5C 287.701,128.243 285.368,124.243 282.5,120.5C 281.491,123.473 281.491,126.473 282.5,129.5C 281.19,127.565 279.857,125.565 278.5,123.5C 277.702,123.957 277.369,124.624 277.5,125.5C 276.89,126.391 276.557,127.391 276.5,128.5C 275.094,128.973 274.427,129.973 274.5,131.5C 274.5,131.833 274.5,132.167 274.5,132.5C 274.167,132.5 273.833,132.5 273.5,132.5C 273.89,129.017 274.89,125.684 276.5,122.5C 281.475,119.674 282.641,115.674 280,110.5C 278.855,109.316 277.688,109.316 276.5,110.5C 276.912,106.663 278.246,105.996 280.5,108.5 Z"/></g>
<g><path style="opacity:0.027" fill="#141320" d="M 308.5,104.5 C 308.833,104.5 309.167,104.5 309.5,104.5C 309.5,105.167 309.5,105.833 309.5,106.5C 309.5,114.5 309.5,122.5 309.5,130.5C 309.5,136.833 309.5,143.167 309.5,149.5C 312.167,149.5 314.833,149.5 317.5,149.5C 314.713,150.477 311.713,150.81 308.5,150.5C 308.829,136.656 308.496,122.99 307.5,109.5C 307.833,108.167 308.167,106.833 308.5,105.5C 308.5,105.167 308.5,104.833 308.5,104.5 Z"/></g>
<g><path style="opacity:0.035" fill="#655ca5" d="M 330.5,119.5 C 332.853,120.34 334.853,121.674 336.5,123.5C 335.391,123.443 334.391,123.11 333.5,122.5C 332.167,121.833 331.167,120.833 330.5,119.5 Z"/></g>
<g><path style="opacity:1" fill="#1f09fa" d="M 142.5,119.5 C 142.777,121.728 143.777,123.395 145.5,124.5C 145.827,127.482 145.827,130.315 145.5,133C 148.266,133.813 149.933,135.646 150.5,138.5C 149.68,140.111 148.346,140.778 146.5,140.5C 145.249,137.868 144.249,135.201 143.5,132.5C 142.247,128.662 140.913,124.828 139.5,121C 139.667,119.833 139.833,118.667 140,117.5C 140.708,118.381 141.542,119.047 142.5,119.5 Z"/></g>
<g><path style="opacity:0.239" fill="#544f77" d="M 295.5,117.5 C 295.5,118.833 295.5,120.167 295.5,121.5C 294.539,124.055 293.206,126.388 291.5,128.5C 292.387,124.581 293.721,120.915 295.5,117.5 Z"/></g>
<g><path style="opacity:0.949" fill="#3425b8" d="M 361.5,111.5 C 364.833,111.5 368.167,111.5 371.5,111.5C 367.702,112.483 363.702,112.817 359.5,112.5C 359.5,115.833 359.5,119.167 359.5,122.5C 362.5,123.167 365.5,123.833 368.5,124.5C 365.15,124.665 361.817,124.498 358.5,124C 357.594,122.301 357.261,120.467 357.5,118.5C 357.5,116.167 357.5,113.833 357.5,111.5C 358.833,111.5 360.167,111.5 361.5,111.5 Z"/></g>
<g><path style="opacity:0.035" fill="#403f52" d="M 138.5,125.5 C 137.728,124.306 136.728,123.306 135.5,122.5C 135.369,121.624 135.702,120.957 136.5,120.5C 137.95,121.85 138.617,123.516 138.5,125.5 Z"/></g>
<g><path style="opacity:0.443" fill="#716aa3" d="M 118.5,121.5 C 118.34,123.153 117.674,124.486 116.5,125.5C 116.157,123.517 116.824,122.183 118.5,121.5 Z"/></g>
<g><path style="opacity:1" fill="#2e1ce4" d="M 194.5,105.5 C 199.695,105.179 204.695,105.513 209.5,106.5C 198.815,104.371 190.315,107.704 184,116.5C 183.216,119.76 183.383,122.927 184.5,126C 183.342,127.009 182.675,128.342 182.5,130C 182.959,134.003 183.959,137.836 185.5,141.5C 183.254,139.351 181.754,136.684 181,133.5C 180.179,127.352 180.679,121.352 182.5,115.5C 185.167,113.5 187.5,111.167 189.5,108.5C 191.565,108.047 193.232,107.047 194.5,105.5 Z"/></g>
<g><path style="opacity:0.212" fill="#37356d" d="M 240.5,104.5 C 240.5,104.833 240.5,105.167 240.5,105.5C 240.5,105.833 240.5,106.167 240.5,106.5C 240.5,108.5 240.5,110.5 240.5,112.5C 240.815,116.371 240.482,120.038 239.5,123.5C 234.637,123.819 229.97,123.486 225.5,122.5C 230.167,122.5 234.833,122.5 239.5,122.5C 239.177,116.31 239.51,110.31 240.5,104.5 Z"/></g>
<g><path style="opacity:0.106" fill="#635990" d="M 359.5,122.5 C 363.167,122.5 366.833,122.5 370.5,122.5C 370.5,125.167 370.5,127.833 370.5,130.5C 366.833,130.5 363.167,130.5 359.5,130.5C 362.625,129.521 365.958,129.187 369.5,129.5C 369.784,127.585 369.451,125.919 368.5,124.5C 365.5,123.833 362.5,123.167 359.5,122.5 Z"/></g>
<g><path style="opacity:0.851" fill="#604dbc" d="M 77.5,120.5 C 79.0652,122.509 80.0652,124.843 80.5,127.5C 78.1663,125.824 77.1663,123.491 77.5,120.5 Z"/></g>
<g><path style="opacity:0.051" fill="#2c2c3f" d="M 86.5,120.5 C 86.5979,122.553 85.9313,124.22 84.5,125.5C 84.4021,123.447 85.0687,121.78 86.5,120.5 Z"/></g>
<g><path style="opacity:0.443" fill="#6053a9" d="M 304.5,116.5 C 303.154,120.207 301.821,123.874 300.5,127.5C 300.278,123.158 301.611,119.491 304.5,116.5 Z"/></g>
<g><path style="opacity:0.004" fill="#3e3955" d="M 100.5,135.5 C 101.492,138.823 102.492,142.156 103.5,145.5C 100.124,139.076 96.9578,132.41 94,125.5C 93.6174,126.056 93.1174,126.389 92.5,126.5C 92.8923,124.821 93.3923,123.154 94,121.5C 95.8986,126.396 98.0652,131.063 100.5,135.5 Z"/></g>
<g><path style="opacity:1" fill="#2009fb" d="M 226.5,124.5 C 228.969,125.317 231.635,125.817 234.5,126C 231.274,127.199 227.941,127.699 224.5,127.5C 223.027,125.605 221.36,123.939 219.5,122.5C 219.5,117.167 219.5,111.833 219.5,106.5C 220.833,106.5 222.167,106.5 223.5,106.5C 223.334,112.176 223.501,117.843 224,123.5C 224.671,124.252 225.504,124.586 226.5,124.5 Z"/></g>
<g><path style="opacity:0.106" fill="#1f1c37" d="M 322.5,111.5 C 322.5,111.833 322.5,112.167 322.5,112.5C 321.669,120.84 325.002,126.84 332.5,130.5C 322.977,127.333 319.644,121 322.5,111.5 Z"/></g>
<g><path style="opacity:1" fill="#1f0bf8" d="M 330.5,119.5 C 331.167,120.833 332.167,121.833 333.5,122.5C 335.4,125.249 337.567,127.916 340,130.5C 341.545,129.179 342.711,129.512 343.5,131.5C 342.758,132.287 341.925,132.953 341,133.5C 339.254,131.543 337.088,130.543 334.5,130.5C 331.865,127.198 328.865,124.198 325.5,121.5C 324.607,118.916 324.274,116.249 324.5,113.5C 325.5,113.5 326.5,113.5 327.5,113.5C 327.34,115.199 327.506,116.866 328,118.5C 328.671,119.252 329.504,119.586 330.5,119.5 Z"/></g>
<g><path style="opacity:1" fill="#3620e9" d="M 259.5,117.5 C 260.143,119.076 261.143,120.41 262.5,121.5C 263.309,123.028 263.976,124.694 264.5,126.5C 264.5,128.167 264.5,129.833 264.5,131.5C 265.5,131.5 266.5,131.5 267.5,131.5C 266.817,133.176 265.483,133.843 263.5,133.5C 263.657,132.127 263.49,130.793 263,129.5C 261.625,131.937 261.125,134.603 261.5,137.5C 258.958,133.239 257.292,128.573 256.5,123.5C 257.749,124.778 259.249,125.778 261,126.5C 260.855,123.486 260.355,120.486 259.5,117.5 Z"/></g>
<g><path style="opacity:1" fill="#2916eb" d="M 298.5,132.5 C 295.54,135.1 294.206,138.433 294.5,142.5C 294.5,142.833 294.5,143.167 294.5,143.5C 293.1,144.1 292.1,145.1 291.5,146.5C 292.658,141.078 294.325,135.745 296.5,130.5C 296.333,129.833 296.167,129.167 296,128.5C 295.333,129.833 294.667,129.833 294,128.5C 293.888,131.447 292.388,132.78 289.5,132.5C 290.806,131.533 291.473,130.199 291.5,128.5C 293.206,126.388 294.539,124.055 295.5,121.5C 295.369,122.239 295.536,122.906 296,123.5C 297.993,119.473 299.16,119.64 299.5,124C 298.969,126.817 298.636,129.65 298.5,132.5 Z"/></g>
<g><path style="opacity:0.462" fill="#4d3eaf" d="M 309.5,104.5 C 312.167,104.5 314.833,104.5 317.5,104.5C 317.5,119.5 317.5,134.5 317.5,149.5C 314.833,149.5 312.167,149.5 309.5,149.5C 309.5,143.167 309.5,136.833 309.5,130.5C 310.49,136.31 310.823,142.31 310.5,148.5C 312.5,148.5 314.5,148.5 316.5,148.5C 316.5,134.167 316.5,119.833 316.5,105.5C 314.05,105.298 311.717,105.631 309.5,106.5C 309.5,105.833 309.5,105.167 309.5,104.5 Z"/></g>
<g><path style="opacity:0.522" fill="#6d62a9" d="M 339.5,124.5 C 341.23,125.026 342.564,126.026 343.5,127.5C 341.368,127.446 340.035,126.446 339.5,124.5 Z"/></g>
<g><path style="opacity:1" fill="#301ce6" d="M 122.5,110.5 C 121.833,110.833 121.167,111.167 120.5,111.5C 120.5,110.167 120.5,108.833 120.5,107.5C 119.178,107.33 118.011,107.663 117,108.5C 115.91,111.692 114.743,114.859 113.5,118C 113.95,119.285 114.617,120.452 115.5,121.5C 113.87,124.276 113.203,127.276 113.5,130.5C 112.962,132.117 112.629,133.784 112.5,135.5C 112.5,135.833 112.5,136.167 112.5,136.5C 111.391,136.557 110.391,136.89 109.5,137.5C 110.338,134.488 110.838,131.488 111,128.5C 110.667,128.167 110.333,127.833 110,127.5C 110.184,130.784 108.684,132.784 105.5,133.5C 104.165,131.191 102.832,128.858 101.5,126.5C 101.167,123.833 100.833,121.167 100.5,118.5C 102.072,121.318 103.406,124.318 104.5,127.5C 104.5,128.833 104.5,130.167 104.5,131.5C 105.5,131.5 106.5,131.5 107.5,131.5C 108.905,127.615 109.905,123.615 110.5,119.5C 113,116.34 114.333,112.673 114.5,108.5C 116.347,105.829 119.014,104.829 122.5,105.5C 122.5,107.167 122.5,108.833 122.5,110.5 Z"/></g>
<g><path style="opacity:0.282" fill="#575184" d="M 110.5,119.5 C 109.905,123.615 108.905,127.615 107.5,131.5C 106.5,131.5 105.5,131.5 104.5,131.5C 104.5,130.167 104.5,128.833 104.5,127.5C 105.222,127.918 105.722,128.584 106,129.5C 107.232,125.939 108.732,122.606 110.5,119.5 Z"/></g>
<g><path style="opacity:0.729" fill="#4a3ddd" d="M 170.5,111.5 C 170.5,111.833 170.5,112.167 170.5,112.5C 170.5,124.833 170.5,137.167 170.5,149.5C 168.167,149.5 165.833,149.5 163.5,149.5C 163.5,137.167 163.5,124.833 163.5,112.5C 164.495,124.322 164.828,136.322 164.5,148.5C 166.167,148.5 167.833,148.5 169.5,148.5C 169.171,135.989 169.505,123.655 170.5,111.5 Z"/></g>
<g><path style="opacity:1" fill="#1e08fd" d="M 165.5,112.5 C 166.15,112.804 166.817,113.137 167.5,113.5C 168.499,124.48 168.832,135.48 168.5,146.5C 167.5,146.5 166.5,146.5 165.5,146.5C 165.5,135.167 165.5,123.833 165.5,112.5 Z"/></g>
<g><path style="opacity:1" fill="#3720e7" d="M 240.5,106.5 C 240.5,106.167 240.5,105.833 240.5,105.5C 242.5,105.5 244.5,105.5 246.5,105.5C 246.5,119.833 246.5,134.167 246.5,148.5C 244.5,148.5 242.5,148.5 240.5,148.5C 240.5,142.167 240.5,135.833 240.5,129.5C 235.5,129.5 230.5,129.5 225.5,129.5C 225.167,129.5 224.833,129.5 224.5,129.5C 224.5,128.833 224.5,128.167 224.5,127.5C 227.941,127.699 231.274,127.199 234.5,126C 231.635,125.817 228.969,125.317 226.5,124.5C 231.032,124.818 235.366,124.485 239.5,123.5C 240.482,120.038 240.815,116.371 240.5,112.5C 240.959,115.49 241.959,118.323 243.5,121C 242.663,122.011 242.33,123.178 242.5,124.5C 241.534,132.08 241.201,139.747 241.5,147.5C 242.833,147.5 244.167,147.5 245.5,147.5C 245.5,141.5 245.5,135.5 245.5,129.5C 245.5,121.833 245.5,114.167 245.5,106.5C 243.833,106.5 242.167,106.5 240.5,106.5 Z"/></g>
<g><path style="opacity:1" fill="#1f09fa" d="M 242.5,124.5 C 244.028,125.802 245.028,127.469 245.5,129.5C 245.5,135.5 245.5,141.5 245.5,147.5C 244.167,147.5 242.833,147.5 241.5,147.5C 241.201,139.747 241.534,132.08 242.5,124.5 Z"/></g>
<g><path style="opacity:0.302" fill="#423b79" d="M 271.5,119.5 C 270.808,122.936 269.808,126.27 268.5,129.5C 268.167,130.167 267.833,130.833 267.5,131.5C 266.5,131.5 265.5,131.5 264.5,131.5C 264.5,129.833 264.5,128.167 264.5,126.5C 265.29,127.609 265.79,128.942 266,130.5C 267.352,126.462 269.186,122.795 271.5,119.5 Z"/></g>
<g><path style="opacity:0.059" fill="#3f3c57" d="M 84.5,125.5 C 84.3964,127.703 83.7298,129.703 82.5,131.5C 81.6618,131.158 81.3284,130.492 81.5,129.5C 82.5,128.167 83.5,126.833 84.5,125.5 Z"/></g>
<g><path style="opacity:0.243" fill="#6763a0" d="M 116.5,126.5 C 116.34,128.153 115.674,129.486 114.5,130.5C 114.229,128.62 114.896,127.287 116.5,126.5 Z"/></g>
<g><path style="opacity:0.039" fill="#32304b" d="M 248.5,107.5 C 248.833,107.5 249.167,107.5 249.5,107.5C 251.093,113.322 253.426,118.655 256.5,123.5C 257.292,128.573 258.958,133.239 261.5,137.5C 261.5,137.833 261.5,138.167 261.5,138.5C 262.561,141.511 263.727,144.511 265,147.5C 265.671,148.252 266.504,148.586 267.5,148.5C 266.923,150.652 265.756,150.985 264,149.5C 258.829,135.469 253.662,121.469 248.5,107.5 Z"/></g>
<g><path style="opacity:0.008" fill="#54497b" d="M 276.5,128.5 C 276.573,130.027 275.906,131.027 274.5,131.5C 274.427,129.973 275.094,128.973 276.5,128.5 Z"/></g>
<g><path style="opacity:1" fill="#2c19e9" d="M 90.5,113.5 C 90.3259,115.861 89.9926,118.194 89.5,120.5C 91.8568,120.337 94.1902,120.503 96.5,121C 96.1667,121.333 95.8333,121.667 95.5,122C 96.3994,123.652 97.3994,125.152 98.5,126.5C 98.8726,129.574 99.5392,132.574 100.5,135.5C 98.0652,131.063 95.8986,126.396 94,121.5C 93.3923,123.154 92.8923,124.821 92.5,126.5C 90.8958,127.287 90.2291,128.62 90.5,130.5C 90.5,130.833 90.5,131.167 90.5,131.5C 88.8958,132.287 88.2291,133.62 88.5,135.5C 87.8333,135.5 87.1667,135.5 86.5,135.5C 86.5,134.167 86.5,132.833 86.5,131.5C 85.1667,131.5 83.8333,131.5 82.5,131.5C 83.7298,129.703 84.3964,127.703 84.5,125.5C 85.9313,124.22 86.5979,122.553 86.5,120.5C 88.2132,119.365 88.8799,117.698 88.5,115.5C 89.1667,114.833 89.8333,114.167 90.5,113.5 Z"/></g>
<g><path style="opacity:0.38" fill="#6f61aa" d="M 92.5,126.5 C 92.7709,128.38 92.1042,129.713 90.5,130.5C 90.2291,128.62 90.8958,127.287 92.5,126.5 Z"/></g>
<g><path style="opacity:0.039" fill="#201f36" d="M 138.5,125.5 C 140.245,127.033 141.245,129.033 141.5,131.5C 141.672,132.492 141.338,133.158 140.5,133.5C 139.833,130.833 139.167,128.167 138.5,125.5 Z"/></g>
<g><path style="opacity:0.459" fill="#6253b3" d="M 343.5,127.5 C 345.587,128.585 346.92,130.251 347.5,132.5C 345.413,131.415 344.08,129.749 343.5,127.5 Z"/></g>
<g><path style="opacity:0.039" fill="#231d42" d="M 332.5,130.5 C 333.167,130.5 333.833,130.5 334.5,130.5C 335.694,131.272 336.694,132.272 337.5,133.5C 335.326,133.25 333.659,132.25 332.5,130.5 Z"/></g>
<g><path style="opacity:1" fill="#230ff6" d="M 101.5,126.5 C 102.832,128.858 104.165,131.191 105.5,133.5C 108.684,132.784 110.184,130.784 110,127.5C 110.333,127.833 110.667,128.167 111,128.5C 110.838,131.488 110.338,134.488 109.5,137.5C 109.425,140.206 109.092,142.873 108.5,145.5C 108.5,145.833 108.5,146.167 108.5,146.5C 107.167,147.833 105.833,147.833 104.5,146.5C 104.5,145.833 104.167,145.5 103.5,145.5C 102.492,142.156 101.492,138.823 100.5,135.5C 99.5392,132.574 98.8726,129.574 98.5,126.5C 98.3691,125.624 98.7025,124.957 99.5,124.5C 100.182,125.243 100.849,125.909 101.5,126.5 Z"/></g>
<g><path style="opacity:0.42" fill="#634ebc" d="M 147.5,126.5 C 148.751,128.382 149.918,130.382 151,132.5C 151.49,133.793 151.657,135.127 151.5,136.5C 149.103,133.691 147.77,130.358 147.5,126.5 Z"/></g>
<g><path style="opacity:1" fill="#2511f4" d="M 82.5,131.5 C 83.8333,131.5 85.1667,131.5 86.5,131.5C 86.5,132.833 86.5,134.167 86.5,135.5C 86.5,137.167 86.5,138.833 86.5,140.5C 84.7868,141.635 84.1201,143.302 84.5,145.5C 84.5,145.833 84.5,146.167 84.5,146.5C 83.2921,147.234 81.9587,147.567 80.5,147.5C 79.0991,144.296 78.0991,140.963 77.5,137.5C 76.3573,134.316 75.6906,130.983 75.5,127.5C 76.8221,127.33 77.9887,127.663 79,128.5C 79.4709,130.246 80.1376,131.913 81,133.5C 81.7172,132.956 82.2172,132.289 82.5,131.5 Z"/></g>
<g><path style="opacity:0.251" fill="#8f88c3" d="M 90.5,131.5 C 90.3404,133.153 89.6737,134.486 88.5,135.5C 88.2291,133.62 88.8958,132.287 90.5,131.5 Z"/></g>
<g><path style="opacity:0.306" fill="#8078be" d="M 113.5,130.5 C 113.833,130.5 114.167,130.5 114.5,130.5C 114.598,132.553 113.931,134.22 112.5,135.5C 112.629,133.784 112.962,132.117 113.5,130.5 Z"/></g>
<g><path style="opacity:0.208" fill="#6a61af" d="M 133.5,126.5 C 132.833,128.833 132.167,131.167 131.5,133.5C 134.5,133.5 137.5,133.5 140.5,133.5C 141.338,133.158 141.672,132.492 141.5,131.5C 142.404,132.209 142.737,133.209 142.5,134.5C 138.167,134.5 133.833,134.5 129.5,134.5C 129.794,131.246 131.127,128.579 133.5,126.5 Z"/></g>
<g><path style="opacity:1" fill="#1f0bfa" d="M 289.5,132.5 C 292.388,132.78 293.888,131.447 294,128.5C 294.667,129.833 295.333,129.833 296,128.5C 296.167,129.167 296.333,129.833 296.5,130.5C 294.325,135.745 292.658,141.078 291.5,146.5C 289.239,143.634 287.739,140.301 287,136.5C 286.241,134.937 285.074,133.937 283.5,133.5C 282.766,132.292 282.433,130.959 282.5,129.5C 281.491,126.473 281.491,123.473 282.5,120.5C 285.368,124.243 287.701,128.243 289.5,132.5 Z"/></g>
<g><path style="opacity:1" fill="#3722e7" d="M 333.5,122.5 C 334.391,123.11 335.391,123.443 336.5,123.5C 337.609,123.557 338.609,123.89 339.5,124.5C 340.035,126.446 341.368,127.446 343.5,127.5C 344.08,129.749 345.413,131.415 347.5,132.5C 348.833,136.167 348.833,139.833 347.5,143.5C 346.833,143.833 346.167,144.167 345.5,144.5C 346.363,142.105 346.363,139.771 345.5,137.5C 344.914,137.291 344.414,136.957 344,136.5C 343.764,138.119 342.931,139.119 341.5,139.5C 341.625,136.392 340.292,134.392 337.5,133.5C 336.694,132.272 335.694,131.272 334.5,130.5C 337.088,130.543 339.254,131.543 341,133.5C 341.925,132.953 342.758,132.287 343.5,131.5C 342.711,129.512 341.545,129.179 340,130.5C 337.567,127.916 335.4,125.249 333.5,122.5 Z"/></g>
<g><path style="opacity:1" fill="#200cf6" d="M 143.5,132.5 C 144.249,135.201 145.249,137.868 146.5,140.5C 146.167,140.5 145.833,140.5 145.5,140.5C 138.352,139.508 131.019,139.175 123.5,139.5C 123.5,141.5 123.5,143.5 123.5,145.5C 123.5,146.167 123.5,146.833 123.5,147.5C 121.5,147.5 119.5,147.5 117.5,147.5C 117.629,145.784 117.962,144.117 118.5,142.5C 118.5,141.833 118.5,141.167 118.5,140.5C 119.272,139.306 120.272,138.306 121.5,137.5C 122.626,136.286 123.959,135.286 125.5,134.5C 128.83,135.951 132.33,136.617 136,136.5C 138.61,136.467 140.777,135.8 142.5,134.5C 143.338,134.158 143.672,133.492 143.5,132.5 Z"/></g>
<g><path style="opacity:1" fill="#1f0afa" d="M 270.5,137.5 C 269.215,140.07 267.882,142.736 266.5,145.5C 265.107,142.804 263.44,140.471 261.5,138.5C 261.5,138.167 261.5,137.833 261.5,137.5C 261.125,134.603 261.625,131.937 263,129.5C 263.49,130.793 263.657,132.127 263.5,133.5C 265.483,133.843 266.817,133.176 267.5,131.5C 267.833,130.833 268.167,130.167 268.5,129.5C 269.708,128.766 271.041,128.433 272.5,128.5C 271.594,131.436 270.928,134.436 270.5,137.5 Z"/></g>
<g><path style="opacity:0.173" fill="#8681a4" d="M 273.5,132.5 C 273.833,132.5 274.167,132.5 274.5,132.5C 274.204,134.403 273.537,136.07 272.5,137.5C 272.5,136.5 272.5,135.5 272.5,134.5C 272.833,133.833 273.167,133.167 273.5,132.5 Z"/></g>
<g><path style="opacity:1" fill="#1f09fb" d="M 219.5,122.5 C 221.36,123.939 223.027,125.605 224.5,127.5C 224.5,128.167 224.5,128.833 224.5,129.5C 223.51,135.31 223.177,141.31 223.5,147.5C 222.167,147.5 220.833,147.5 219.5,147.5C 219.5,139.167 219.5,130.833 219.5,122.5 Z"/></g>
<g><path style="opacity:0.114" fill="#1c1b31" d="M 225.5,130.5 C 225.5,130.167 225.5,129.833 225.5,129.5C 230.5,129.5 235.5,129.5 240.5,129.5C 240.5,135.833 240.5,142.167 240.5,148.5C 242.607,149.468 244.941,149.802 247.5,149.5C 245.052,150.473 242.385,150.806 239.5,150.5C 239.5,143.833 239.5,137.167 239.5,130.5C 234.833,130.5 230.167,130.5 225.5,130.5 Z"/></g>
<g><path style="opacity:0.761" fill="#5242a4" d="M 86.5,135.5 C 87.1667,135.5 87.8333,135.5 88.5,135.5C 88.5979,137.553 87.9313,139.22 86.5,140.5C 86.5,138.833 86.5,137.167 86.5,135.5 Z"/></g>
<g><path style="opacity:0.384" fill="#565181" d="M 128.5,118.5 C 126.462,124.916 124.128,131.249 121.5,137.5C 120.272,138.306 119.272,139.306 118.5,140.5C 121.283,132.932 124.617,125.599 128.5,118.5 Z"/></g>
<g><path style="opacity:0.396" fill="#6358aa" d="M 298.5,132.5 C 297.679,136.127 296.346,139.46 294.5,142.5C 294.206,138.433 295.54,135.1 298.5,132.5 Z"/></g>
<g><path style="opacity:1" fill="#5137d4" d="M 209.5,106.5 C 210.5,106.5 211.5,106.5 212.5,106.5C 213.806,107.467 214.473,108.801 214.5,110.5C 214.672,111.492 214.338,112.158 213.5,112.5C 212.735,112.923 211.902,113.257 211,113.5C 205.683,110.922 200.516,110.922 195.5,113.5C 193.204,115.401 191.371,117.734 190,120.5C 188.759,127.225 189.593,133.558 192.5,139.5C 190.958,138.699 189.292,138.366 187.5,138.5C 186.77,129.85 187.77,121.516 190.5,113.5C 197.214,110.846 204.214,109.846 211.5,110.5C 211.473,108.801 210.806,107.467 209.5,106.5 Z"/></g>
<g><path style="opacity:1" fill="#3d27da" d="M 283.5,133.5 C 285.074,133.937 286.241,134.937 287,136.5C 287.739,140.301 289.239,143.634 291.5,146.5C 291.361,148.337 290.694,148.67 289.5,147.5C 286.981,143.005 284.981,138.339 283.5,133.5 Z"/></g>
<g><path style="opacity:1" fill="#1e0af9" d="M 353.5,114.5 C 354.5,114.5 355.5,114.5 356.5,114.5C 356.232,116.099 356.566,117.432 357.5,118.5C 357.261,120.467 357.594,122.301 358.5,124C 361.817,124.498 365.15,124.665 368.5,124.5C 368.5,125.833 368.5,127.167 368.5,128.5C 364.894,128.211 361.394,128.544 358,129.5C 357.333,134.167 357.333,138.833 358,143.5C 362.401,144.467 366.901,144.8 371.5,144.5C 371.5,145.5 371.5,146.5 371.5,147.5C 365.5,147.5 359.5,147.5 353.5,147.5C 353.5,136.5 353.5,125.5 353.5,114.5 Z"/></g>
<g><path style="opacity:0.918" fill="#614bb5" d="M 112.5,136.5 C 111.917,139.947 110.584,142.947 108.5,145.5C 109.092,142.873 109.425,140.206 109.5,137.5C 110.391,136.89 111.391,136.557 112.5,136.5 Z"/></g>
<g><path style="opacity:0.682" fill="#6b5fc0" d="M 152.5,136.5 C 153.537,137.93 154.204,139.597 154.5,141.5C 152.787,140.365 152.12,138.698 152.5,136.5 Z"/></g>
<g><path style="opacity:1" fill="#3924d3" d="M 145.5,140.5 C 138.745,139.877 132.412,140.544 126.5,142.5C 126.672,143.492 126.338,144.158 125.5,144.5C 124.833,144.833 124.167,145.167 123.5,145.5C 123.5,143.5 123.5,141.5 123.5,139.5C 131.019,139.175 138.352,139.508 145.5,140.5 Z"/></g>
<g><path style="opacity:1" fill="#2a15ea" d="M 145.5,124.5 C 145.833,124.5 146.167,124.5 146.5,124.5C 146.833,125.167 147.167,125.833 147.5,126.5C 147.77,130.358 149.103,133.691 151.5,136.5C 151.833,136.5 152.167,136.5 152.5,136.5C 152.12,138.698 152.787,140.365 154.5,141.5C 155.674,142.514 156.34,143.847 156.5,145.5C 156.5,146.5 156.5,147.5 156.5,148.5C 154.167,148.5 151.833,148.5 149.5,148.5C 148.5,145.833 147.5,143.167 146.5,140.5C 148.346,140.778 149.68,140.111 150.5,138.5C 149.933,135.646 148.266,133.813 145.5,133C 145.827,130.315 145.827,127.482 145.5,124.5 Z"/></g>
<g><path style="opacity:0.012" fill="#222039" d="M 182.5,115.5 C 180.679,121.352 180.179,127.352 181,133.5C 181.754,136.684 183.254,139.351 185.5,141.5C 185.833,142.5 186.5,143.167 187.5,143.5C 187.833,144.5 188.5,145.167 189.5,145.5C 189.833,146.167 190.167,146.833 190.5,147.5C 184.679,145.167 181.179,140.834 180,134.5C 179.333,129.833 179.333,125.167 180,120.5C 180.374,118.509 181.207,116.842 182.5,115.5 Z"/></g>
<g><path style="opacity:0.016" fill="#3e3a5a" d="M 282.5,129.5 C 282.433,130.959 282.766,132.292 283.5,133.5C 284.981,138.339 286.981,143.005 289.5,147.5C 290.694,148.67 291.361,148.337 291.5,146.5C 292.1,145.1 293.1,144.1 294.5,143.5C 293.772,145.512 292.938,147.512 292,149.5C 290.989,150.337 289.822,150.67 288.5,150.5C 286.144,141.513 282.477,133.179 277.5,125.5C 277.369,124.624 277.702,123.957 278.5,123.5C 279.857,125.565 281.19,127.565 282.5,129.5 Z"/></g>
<g><path style="opacity:0.49" fill="#6b5daf" d="M 86.5,140.5 C 86.5979,142.553 85.9313,144.22 84.5,145.5C 84.1201,143.302 84.7868,141.635 86.5,140.5 Z"/></g>
<g><path style="opacity:0.031" fill="#262638" d="M 118.5,140.5 C 118.5,141.167 118.5,141.833 118.5,142.5C 117.833,142.833 117.167,143.167 116.5,143.5C 116.427,141.973 117.094,140.973 118.5,140.5 Z"/></g>
<g><path style="opacity:0.192" fill="#373058" d="M 145.5,140.5 C 145.833,140.5 146.167,140.5 146.5,140.5C 147.5,143.167 148.5,145.833 149.5,148.5C 152.287,149.477 155.287,149.81 158.5,149.5C 155.313,150.806 151.98,150.806 148.5,149.5C 147.443,146.811 146.11,144.311 144.5,142C 138.418,141.212 132.418,141.379 126.5,142.5C 132.412,140.544 138.745,139.877 145.5,140.5 Z"/></g>
<g><path style="opacity:0.286" fill="#483a95" d="M 192.5,140.5 C 192.5,140.167 192.5,139.833 192.5,139.5C 198.921,143.473 205.421,143.473 212,139.5C 213.03,139.836 213.53,140.503 213.5,141.5C 209.906,142.457 206.24,143.124 202.5,143.5C 198.688,143.719 195.354,142.719 192.5,140.5 Z"/></g>
<g><path style="opacity:0.22" fill="#50478e" d="M 337.5,133.5 C 340.292,134.392 341.625,136.392 341.5,139.5C 340.636,140.688 339.636,141.855 338.5,143C 333.725,144.159 329.392,143.326 325.5,140.5C 324.735,141.612 323.735,142.279 322.5,142.5C 322.484,140.516 323.484,139.516 325.5,139.5C 329.092,142.134 333.092,142.967 337.5,142C 338.743,140.846 339.743,139.512 340.5,138C 339.117,136.729 338.117,135.229 337.5,133.5 Z"/></g>
<g><path style="opacity:0.286" fill="#20177c" d="M 359.5,142.5 C 364.167,142.5 368.833,142.5 373.5,142.5C 373.5,144.833 373.5,147.167 373.5,149.5C 373.167,149.5 372.833,149.5 372.5,149.5C 372.5,147.5 372.5,145.5 372.5,143.5C 367.968,143.818 363.634,143.485 359.5,142.5 Z"/></g>
<g><path style="opacity:0.008" fill="#39364c" d="M 64.5,104.5 C 64.2627,105.791 64.596,106.791 65.5,107.5C 65.9348,110.157 66.9348,112.491 68.5,114.5C 70.5377,122.625 73.5377,130.292 77.5,137.5C 78.0991,140.963 79.0991,144.296 80.5,147.5C 80.8333,148.5 81.5,149.167 82.5,149.5C 81.8106,150.774 80.9772,150.774 80,149.5C 74.204,135.279 68.704,120.945 63.5,106.5C 63.5427,105.584 63.8761,104.917 64.5,104.5 Z"/></g>
<g><path style="opacity:0.992" fill="#3f2ad0" d="M 272.5,134.5 C 272.5,135.5 272.5,136.5 272.5,137.5C 271.072,141.35 269.406,145.017 267.5,148.5C 266.504,148.586 265.671,148.252 265,147.5C 263.727,144.511 262.561,141.511 261.5,138.5C 263.44,140.471 265.107,142.804 266.5,145.5C 267.882,142.736 269.215,140.07 270.5,137.5C 271.167,136.5 271.833,135.5 272.5,134.5 Z"/></g>
<g><path style="opacity:0.937" fill="#2c1cd6" d="M 309.5,130.5 C 309.5,122.5 309.5,114.5 309.5,106.5C 311.717,105.631 314.05,105.298 316.5,105.5C 316.5,119.833 316.5,134.167 316.5,148.5C 314.5,148.5 312.5,148.5 310.5,148.5C 310.823,142.31 310.49,136.31 309.5,130.5 Z"/></g>
<g><path style="opacity:1" fill="#1f09fb" d="M 311.5,106.5 C 312.833,106.5 314.167,106.5 315.5,106.5C 315.5,120.167 315.5,133.833 315.5,147.5C 314.167,147.5 312.833,147.5 311.5,147.5C 311.5,133.833 311.5,120.167 311.5,106.5 Z"/></g>
<g><path style="opacity:0.435" fill="#675bc7" d="M 224.5,129.5 C 224.833,129.5 225.167,129.5 225.5,129.5C 225.5,129.833 225.5,130.167 225.5,130.5C 225.5,136.833 225.5,143.167 225.5,149.5C 222.941,149.802 220.607,149.468 218.5,148.5C 220.5,148.5 222.5,148.5 224.5,148.5C 224.5,142.167 224.5,135.833 224.5,129.5 Z"/></g>
<g><path style="opacity:1" fill="#2411f1" d="M 345.5,144.5 C 345.167,145.5 344.5,146.167 343.5,146.5C 338.636,147.9 333.636,148.567 328.5,148.5C 327.167,148.5 325.833,148.5 324.5,148.5C 322.919,146.858 322.253,144.858 322.5,142.5C 323.735,142.279 324.735,141.612 325.5,140.5C 329.392,143.326 333.725,144.159 338.5,143C 339.636,141.855 340.636,140.688 341.5,139.5C 342.931,139.119 343.764,138.119 344,136.5C 344.414,136.957 344.914,137.291 345.5,137.5C 346.363,139.771 346.363,142.105 345.5,144.5 Z"/></g>
<g><path style="opacity:1" fill="#331bee" d="M 192.5,140.5 C 195.354,142.719 198.688,143.719 202.5,143.5C 206.24,143.124 209.906,142.457 213.5,141.5C 214.742,143.611 214.742,145.611 213.5,147.5C 212.5,147.5 211.5,147.5 210.5,147.5C 203.401,147.659 196.401,146.992 189.5,145.5C 188.5,145.167 187.833,144.5 187.5,143.5C 189.117,144.038 190.784,144.371 192.5,144.5C 192.5,143.167 192.5,141.833 192.5,140.5 Z"/></g>
<g><path style="opacity:0.016" fill="#38374e" d="M 322.5,142.5 C 322.253,144.858 322.919,146.858 324.5,148.5C 320.114,147.61 319.448,145.61 322.5,142.5 Z"/></g>
<g><path style="opacity:0.149" fill="#837bba" d="M 125.5,144.5 C 125.771,146.38 125.104,147.713 123.5,148.5C 123.5,148.167 123.5,147.833 123.5,147.5C 123.5,146.833 123.5,146.167 123.5,145.5C 124.167,145.167 124.833,144.833 125.5,144.5 Z"/></g>
<g><path style="opacity:0.067" fill="#584f7d" d="M 347.5,143.5 C 346.388,146.946 344.055,148.946 340.5,149.5C 341.306,148.272 342.306,147.272 343.5,146.5C 344.5,146.167 345.167,145.5 345.5,144.5C 346.167,144.167 346.833,143.833 347.5,143.5 Z"/></g>
<g><path style="opacity:0.839" fill="#4f4099" d="M 84.5,146.5 C 84.573,148.027 83.9063,149.027 82.5,149.5C 81.5,149.167 80.8333,148.5 80.5,147.5C 81.9587,147.567 83.2921,147.234 84.5,146.5 Z"/></g>
<g><path style="opacity:1" fill="#543fd8" d="M 118.5,142.5 C 117.962,144.117 117.629,145.784 117.5,147.5C 119.5,147.5 121.5,147.5 123.5,147.5C 123.5,147.833 123.5,148.167 123.5,148.5C 123.5,148.833 123.5,149.167 123.5,149.5C 120.833,149.5 118.167,149.5 115.5,149.5C 115.629,147.784 115.962,146.117 116.5,144.5C 116.5,144.167 116.5,143.833 116.5,143.5C 117.167,143.167 117.833,142.833 118.5,142.5 Z"/></g>
<g><path style="opacity:1" fill="#442fe5" d="M 189.5,145.5 C 196.401,146.992 203.401,147.659 210.5,147.5C 208.193,149.047 205.527,149.713 202.5,149.5C 198.376,149.467 194.376,148.801 190.5,147.5C 190.167,146.833 189.833,146.167 189.5,145.5 Z"/></g>
<g><path style="opacity:1" fill="#3d28db" d="M 352.5,105.5 C 358.923,105.209 365.256,105.542 371.5,106.5C 371.5,108.167 371.5,109.833 371.5,111.5C 368.167,111.5 364.833,111.5 361.5,111.5C 363.948,110.527 366.615,110.194 369.5,110.5C 369.5,109.167 369.5,107.833 369.5,106.5C 364.167,106.5 358.833,106.5 353.5,106.5C 353.5,109.167 353.5,111.833 353.5,114.5C 353.5,125.5 353.5,136.5 353.5,147.5C 359.5,147.5 365.5,147.5 371.5,147.5C 371.5,146.5 371.5,145.5 371.5,144.5C 366.901,144.8 362.401,144.467 358,143.5C 357.333,138.833 357.333,134.167 358,129.5C 361.394,128.544 364.894,128.211 368.5,128.5C 368.5,127.167 368.5,125.833 368.5,124.5C 369.451,125.919 369.784,127.585 369.5,129.5C 365.958,129.187 362.625,129.521 359.5,130.5C 359.5,134.5 359.5,138.5 359.5,142.5C 363.634,143.485 367.968,143.818 372.5,143.5C 372.5,145.5 372.5,147.5 372.5,149.5C 365.833,149.5 359.167,149.5 352.5,149.5C 352.5,134.833 352.5,120.167 352.5,105.5 Z"/></g>
<g><path style="opacity:0.004" fill="#1c1b28" d="M 103.5,145.5 C 104.167,145.5 104.5,145.833 104.5,146.5C 104.5,148.5 105.5,149.5 107.5,149.5C 104.172,150.851 102.839,149.517 103.5,145.5 Z"/></g>
<g><path style="opacity:0.369" fill="#7266bb" d="M 104.5,146.5 C 105.833,147.833 107.167,147.833 108.5,146.5C 108.737,147.791 108.404,148.791 107.5,149.5C 105.5,149.5 104.5,148.5 104.5,146.5 Z"/></g>
<g><path style="opacity:0.62" fill="#7769d9" d="M 156.5,145.5 C 157.674,146.514 158.34,147.847 158.5,149.5C 155.287,149.81 152.287,149.477 149.5,148.5C 151.833,148.5 154.167,148.5 156.5,148.5C 156.5,147.5 156.5,146.5 156.5,145.5 Z"/></g>
<g><path style="opacity:0.886" fill="#412bdd" d="M 343.5,146.5 C 342.306,147.272 341.306,148.272 340.5,149.5C 336.298,149.817 332.298,149.483 328.5,148.5C 333.636,148.567 338.636,147.9 343.5,146.5 Z"/></g>
<g><path style="opacity:0.141" fill="#332f4a" d="M 116.5,144.5 C 115.962,146.117 115.629,147.784 115.5,149.5C 118.167,149.5 120.833,149.5 123.5,149.5C 120.713,150.477 117.713,150.81 114.5,150.5C 114.054,147.99 114.72,145.99 116.5,144.5 Z"/></g>
<g><path style="opacity:0.142" fill="#353157" d="M 190.5,147.5 C 194.376,148.801 198.376,149.467 202.5,149.5C 205.527,149.713 208.193,149.047 210.5,147.5C 211.5,147.5 212.5,147.5 213.5,147.5C 212.653,148.966 211.32,149.8 209.5,150C 204.833,150.667 200.167,150.667 195.5,150C 193.347,149.901 191.681,149.067 190.5,147.5 Z"/></g>
<g><path style="opacity:0.141" fill="#7a7793" d="M 217.5,105.5 C 217.833,105.5 218.167,105.5 218.5,105.5C 218.5,119.833 218.5,134.167 218.5,148.5C 220.607,149.468 222.941,149.802 225.5,149.5C 223.052,150.473 220.385,150.806 217.5,150.5C 217.5,135.5 217.5,120.5 217.5,105.5 Z"/></g>
<g><path style="opacity:0.322" fill="#706990" d="M 324.5,148.5 C 325.833,148.5 327.167,148.5 328.5,148.5C 332.298,149.483 336.298,149.817 340.5,149.5C 335.059,152.044 329.726,151.711 324.5,148.5 Z"/></g>
</svg>
